<svg width="218" height="41" viewBox="0 0 218 41" fill="none" xmlns="http://www.w3.org/2000/svg">
<g id="Group 10">
<path id="Vector" fill-rule="evenodd" clip-rule="evenodd" d="M16.6191 40.5224V11.6299C20.9239 7.04824 26.4808 4.72854 33.0244 4.19189V33.4536C26.0364 33.8575 20.7219 36.4081 16.6191 40.5224ZM26.3711 27.5101C25.973 27.5101 26.2442 27.6371 26.3711 27.6717C26.9251 27.8736 27.4848 28.0814 28.0388 28.2833C28.662 28.5315 29.0717 28.9989 29.2794 29.6798C29.4929 30.2164 29.7006 30.7531 29.9142 31.2897C29.9949 31.4974 29.9834 31.3994 29.9834 31.1858V27.8102C29.9834 27.6486 29.8507 27.5159 29.6891 27.5159H26.3711V27.5101ZM18.4137 19.5008C18.0156 19.5008 18.2868 19.6277 18.4137 19.6623C18.9677 19.8701 19.5274 20.072 20.0814 20.274C20.7046 20.5221 21.1143 20.9895 21.322 21.6705C21.5355 22.2071 21.7433 22.7437 21.9568 23.2804C22.0376 23.4881 22.026 23.39 22.026 23.1765V19.8008C22.026 19.6393 21.8933 19.5065 21.7317 19.5065H18.4137V19.5008ZM22.4011 23.5054C22.0029 23.5054 22.2741 23.6324 22.4011 23.667C22.955 23.869 23.5148 24.0767 24.0687 24.2787C24.6919 24.5268 25.1016 24.9942 25.3094 25.6751C25.5229 26.2118 25.7306 26.7484 25.9441 27.2851C26.0249 27.4928 26.0134 27.3947 26.0134 27.1812V23.8055C26.0134 23.6439 25.8806 23.5112 25.7191 23.5112H22.4069L22.4011 23.5054ZM22.4011 19.5008C22.0029 19.5008 22.2741 19.6277 22.4011 19.6623C22.955 19.8701 23.5148 20.072 24.0687 20.274C24.6919 20.5221 25.1016 20.9895 25.3094 21.6705C25.5229 22.2071 25.7306 22.7437 25.9441 23.2804C26.0249 23.4881 26.0134 23.39 26.0134 23.1765V19.8008C26.0134 19.6393 25.8806 19.5065 25.7191 19.5065H22.4069L22.4011 19.5008ZM26.3711 19.5008C25.973 19.5008 26.2442 19.6277 26.3711 19.6623C26.9251 19.8701 27.4848 20.072 28.0388 20.274C28.662 20.5221 29.0717 20.9895 29.2794 21.6705C29.4929 22.2071 29.7006 22.7437 29.9142 23.2804C29.9949 23.4881 29.9834 23.39 29.9834 23.1765V19.8008C29.9834 19.6393 29.8507 19.5065 29.6891 19.5065H26.3711V19.5008ZM26.3711 23.5054C25.973 23.5054 26.2442 23.6324 26.3711 23.667C26.9251 23.869 27.4848 24.0767 28.0388 24.2787C28.662 24.5268 29.0717 24.9942 29.2794 25.6751C29.4929 26.2118 29.7006 26.7484 29.9142 27.2851C29.9949 27.4928 29.9834 27.3947 29.9834 27.1812V23.8055C29.9834 23.6439 29.8507 23.5112 29.6891 23.5112H26.3711V23.5054Z" fill="#2058A8"/>
<path id="Vector_2" fill-rule="evenodd" clip-rule="evenodd" d="M23.0869 38.6179C26.9473 37.6889 31.2809 36.8983 37.9976 36.8868C37.9976 26.7943 37.9976 16.7019 37.9976 6.61523C37.0975 6.69025 36.1973 6.77104 35.2971 6.84605C35.2971 16.4192 35.2971 25.9923 35.2971 35.5654C28.99 35.8539 25.3951 37.0137 23.0927 38.6237L23.0869 38.6179Z" fill="#103B78"/>
<path id="Vector_3" fill-rule="evenodd" clip-rule="evenodd" d="M24.5479 40.4822C30.0701 40.5111 35.5982 40.5399 42.8804 40.5688V9.08545C42.0091 9.13738 41.132 9.19509 40.2607 9.24702C40.2491 19.2183 40.2376 29.1895 40.226 39.1608C34.3979 39.0916 29.1642 39.5243 24.5536 40.4822H24.5479Z" fill="white"/>
<path id="Vector_4" fill-rule="evenodd" clip-rule="evenodd" d="M14.2818 39.876C12.3891 38.7162 10.4444 37.6141 8.43633 36.7369C6.10509 35.7156 3.68729 35.0001 1.14831 34.8616L0 34.7981V4.16878L0.657826 3.82833C5.54536 1.27204 10.5021 0.152583 15.2512 0.0140929C20.3291 -0.130167 25.1647 0.845031 29.406 2.3915C27.9345 2.68579 26.5265 3.08972 25.182 3.60906C22.0891 2.79543 18.7596 2.3338 15.3147 2.43189C11.1196 2.55307 6.75137 3.49942 2.42357 5.6287V32.5361C4.85868 32.8188 7.17261 33.5401 9.39422 34.5153C11.8524 35.5886 14.2702 36.7773 14.2702 39.8818L14.2818 39.876Z" fill="#BF956B"/>
<path id="Vector_5" fill-rule="evenodd" clip-rule="evenodd" d="M19.8276 16.6563C19.8392 15.6926 19.8103 14.7751 19.8103 13.823C20.1161 14.7578 20.422 15.6926 20.7394 16.6563C20.4277 16.6736 20.145 16.7082 19.8276 16.6563ZM19.516 13.0151C19.6661 12.9113 19.6949 13.1017 19.793 13.119C19.92 13.0844 19.9777 13.0036 19.9719 12.8824C19.9719 12.6689 19.6372 12.6632 19.4641 12.6343C19.164 12.5939 18.8813 12.49 18.6158 12.3573C18.5004 12.2996 18.4081 12.2131 18.3677 12.0861C18.2869 11.838 18.0907 11.6937 17.9119 11.5206C18.1369 11.3417 18.1715 10.8974 17.8484 10.8397C17.8368 10.8397 17.8253 10.8397 17.8138 10.8339V8.07568C17.9638 8.06991 18.1138 8.09299 18.2754 8.09299C18.3273 9.27016 18.2004 10.43 18.1427 11.5899C19.0371 12.5189 18.7832 12.3285 20.0007 12.6689C20.2373 12.8016 20.2604 13.0613 20.0469 13.2344C19.8565 13.396 19.4468 13.3152 19.5103 13.0151H19.516ZM18.7486 16.6563C19.0313 15.7619 19.3141 14.8905 19.6026 13.9788C19.6141 14.8963 19.6257 15.7734 19.6372 16.6563H18.7428H18.7486ZM17.2367 8.12185C17.5425 7.91411 17.7618 7.62559 18.0503 7.39477C18.1023 7.35438 18.1715 7.28514 18.2638 7.38323C18.1715 7.46979 18.01 7.66021 18.0215 7.67752C18.1369 7.63713 18.2465 7.59097 18.3793 7.54481C18.5351 7.60828 18.6966 7.67752 18.864 7.74677C18.9044 8.52577 19.0313 9.29901 19.3025 10.0318C19.3025 9.35671 19.1525 8.66426 19.1121 7.98336C19.0832 7.67175 18.9274 7.45825 18.6735 7.29091C18.3966 7.11202 18.1196 6.92737 17.8426 6.74272C17.7041 6.65039 17.5829 6.6677 17.4445 6.73118C17.0001 6.96776 16.6712 7.38323 16.602 7.87372C16.9136 7.51018 17.1155 7.03701 17.5714 6.88698L17.606 6.93891C17.3637 7.23897 17.0694 7.49864 17.0463 7.91988C17.6003 7.25051 17.6349 7.22166 17.883 7.15242C17.8888 7.26783 17.7907 7.31399 17.7387 7.38323C17.6003 7.60828 17.2771 7.86795 17.2367 8.11608V8.12185ZM17.1213 16.6563H16.198C16.1865 15.6753 16.1807 14.7059 16.1692 13.7826C16.475 14.7001 16.7982 15.6695 17.1213 16.6563ZM15.1363 16.6563C15.396 15.6868 15.6902 14.8617 15.973 13.8807C15.9845 14.8328 16.0019 15.7388 16.0134 16.6563H15.1363ZM13.8379 15.6926C13.9591 15.3637 13.913 15.0463 13.7976 14.729C13.7802 15.2079 13.5321 15.6061 13.3763 16.0331C12.9205 17.4295 12.4357 18.9067 11.1143 19.7319C11.1893 19.3799 11.6567 19.3337 11.4144 18.9067C11.3855 18.8606 11.4144 18.7856 11.4144 18.7221C11.1547 18.849 10.895 18.976 10.6296 19.1087L10.5892 19.0625C11.4779 18.3528 12.2511 17.5449 12.6954 16.4716C12.2626 17.0025 11.7952 17.4814 11.1028 17.6776C11.1028 17.5968 11.1143 17.5218 11.1201 17.4353C11.1605 17.4064 11.2124 17.3718 11.2874 17.3141C11.0508 17.3372 10.8373 17.3718 10.6296 17.291C10.9701 17.2795 11.2932 17.2218 11.5875 17.0314C11.1143 17.1179 10.6123 17.1006 10.1911 16.8525C12.1241 17.1064 13.0878 14.9655 13.284 13.3787C13.9014 13.95 14.5015 14.9309 13.8437 15.6984L13.8379 15.6926ZM14.0111 21.3476C14.1149 22.3401 14.288 23.3384 14.1669 24.3367C14.0111 25.3003 13.9014 26.3159 13.4686 27.1988C13.359 27.1584 13.3994 27.0892 13.4167 27.0315C13.509 26.6506 13.6071 26.264 13.6995 25.8832C13.711 25.8312 13.711 25.7793 13.6821 25.71C13.0186 27.4758 11.9337 29.2069 10.2488 30.1417C10.2372 30.1302 10.2314 30.1129 10.2199 30.1013C10.3988 29.9224 10.6527 29.8013 10.7623 29.5647C10.7681 29.5416 10.8143 29.53 10.8258 29.5243C10.8143 29.432 10.8027 29.3454 10.7854 29.2588C10.7566 29.2588 10.7277 29.2473 10.7046 29.2415C10.7335 29.0857 10.7623 28.9357 10.7969 28.7626C10.2488 29.0626 9.6948 29.2992 9.09468 29.3973C12.4127 27.8624 13.8668 24.8329 14.0168 21.3418L14.0111 21.3476ZM10.4103 23.021C10.82 22.8248 11.1316 22.5075 11.4605 22.2074C10.8662 23.3038 9.88522 24.1463 8.76576 24.6714C9.14661 24.6714 9.48706 24.5329 9.84483 24.4348C9.78135 24.4925 9.72365 24.5502 9.66018 24.6079C9.82175 24.5617 9.9487 24.4694 10.0872 24.4059C10.2199 24.3425 10.2834 24.1693 10.468 24.1405C10.2661 24.4867 10.0987 24.781 9.93138 25.133C10.7392 24.6252 11.224 23.7654 11.7375 22.9922C12.2338 22.2766 12.6089 21.5323 12.9839 20.7417C12.5627 23.1018 11.4779 24.9945 9.56785 26.3909C11.5817 25.71 12.8974 23.65 13.3648 21.6592C13.6879 20.1647 13.6937 18.6355 13.7399 17.1179C12.9378 19.6742 11.4663 21.3765 8.9735 22.4036C9.51015 22.4324 9.98332 22.317 10.4853 22.1382C10.3699 22.3344 10.3411 22.5017 10.445 22.6748C10.3699 22.8479 10.3699 22.8595 10.4046 23.0383L10.4103 23.021ZM9.46975 15.9234C9.81021 16.3504 10.5027 16.5928 11.1489 16.2927C10.52 16.3389 9.97755 16.2062 9.46975 15.9234ZM8.37338 9.09127C8.91579 9.54714 9.66018 9.38556 10.1737 8.88354C9.94292 9.71448 8.78307 9.85874 8.37338 9.09127ZM9.35434 6.66193C10.4738 7.28514 10.9874 6.75426 11.5644 5.76752C11.1836 5.9464 11.0451 6.37341 10.6527 6.58115C10.7969 6.32725 10.9181 6.1022 11.0451 5.88293C11.3509 5.21356 12.5396 5.44438 12.4184 6.11952C12.2915 6.1426 12.2742 6.00411 12.1588 5.95794C11.7721 5.91755 11.524 6.2984 11.299 6.56384C11.1605 6.71387 11.0162 6.8639 10.8546 6.98508C10.3699 7.34861 9.63132 7.2332 9.36011 6.66193H9.35434ZM10.393 5.10969C10.0295 5.12701 9.57939 5.46169 9.77558 5.87716C10.0237 5.68673 10.4219 5.10392 10.7335 5.21933C10.3353 5.40976 10.2257 5.76752 10.0699 6.12529C10.1737 6.07335 10.2603 6.03873 10.3411 5.99834C10.3699 6.02142 10.3988 6.05027 10.4334 6.07335C10.7046 5.76752 10.9239 5.40976 11.3451 5.23664C11.0393 5.15009 10.7162 5.10392 10.3988 5.10969H10.393ZM12.6608 6.77157C12.6608 6.64462 12.5973 6.52921 12.4531 6.44266C12.3492 6.47151 12.2049 6.47151 12.1184 6.54075C11.7202 6.8235 11.4548 7.24474 11.1374 7.60251C10.6988 7.96604 10.82 8.49692 10.9816 8.95855C10.9701 8.96432 10.82 8.81429 10.7392 8.72197C10.7104 8.78544 10.6988 8.82584 10.6815 8.86046C10.895 9.3394 11.7779 9.65677 12.2626 9.54714C12.3319 9.40865 12.1703 9.21822 12.3723 9.10858C12.2684 9.05665 12.1414 9.10858 12.0837 8.9701C12.1992 8.92393 12.3088 8.872 12.43 8.82584C12.4184 8.73351 12.4011 8.65272 12.3896 8.54886C12.5281 8.54309 12.6435 8.51423 12.7647 8.46807C12.7647 8.4046 12.7647 8.39305 12.7416 8.34689C12.3896 7.87372 12.7531 7.30822 12.6608 6.77157ZM20.9702 16.6563C20.6355 15.6349 20.3008 14.6251 19.9661 13.598C20.8086 13.3614 20.6586 12.3458 19.8103 12.3342C19.92 11.2032 19.7642 10.1069 19.5853 8.99895C19.4352 8.43345 19.4295 7.43517 18.9332 7.09471C18.5755 6.85236 18.2061 6.62154 17.8426 6.38495C17.6233 6.24646 17.4041 6.49459 17.1963 6.56384C17.0174 6.6677 16.827 6.4542 16.6712 6.57538C16.6135 6.62154 16.6424 6.71964 16.6654 6.7658C16.8097 7.06586 16.2327 7.55058 16.3077 8.01221C16.6366 8.23725 17.0694 8.36997 17.4329 8.21994C17.5022 8.16224 17.5772 8.12185 17.6522 8.09876V10.8339C17.3406 10.8974 17.2771 11.3071 17.5599 11.5668C17.306 11.7226 17.1675 11.9419 17.0982 12.2131C16.9886 12.5189 15.9499 12.6112 15.9499 12.9228C16.1173 13.1825 16.1692 13.1883 16.4 12.9805C16.4462 12.9805 16.4866 13.0036 16.5096 13.044C16.2038 13.7595 15.3267 12.9286 15.9268 12.6574C17.1963 12.4381 16.6251 11.8034 17.3752 11.5668C17.2136 11.411 17.1732 11.2667 17.0059 11.2552C15.0324 11.1225 14.2015 10.5339 12.857 10.7935C12.4011 10.8859 11.7318 11.284 11.3221 10.9147C11.247 11.4687 11.8472 11.9822 12.4242 11.8611C12.1934 11.763 11.9683 11.6649 11.8414 11.4225C12.43 11.2956 12.9955 11.1051 13.5956 11.1455C14.7381 11.2667 15.8634 11.3879 17.0117 11.4802C16.7809 11.6245 16.6712 11.8091 16.5731 11.9996C16.3365 12.4554 15.8172 12.415 15.3671 12.5131C15.3498 12.4958 15.3094 12.4496 15.2748 12.4093C14.8189 12.4035 14.3746 12.3804 14.0053 12.115C12.9262 12.6805 13.082 13.8403 12.4704 14.729C12.2569 14.2154 11.6914 13.9326 11.1778 13.9615C11.7548 14.1173 12.0549 14.4924 12.1876 15.0463C12.153 15.1156 12.1068 15.1329 12.0434 15.1906C11.2817 15.6868 10.2718 15.6003 9.66018 14.9136C9.40051 14.6597 9.14661 14.3885 8.80616 14.2385C8.85809 14.1346 8.97927 14.0942 8.95042 13.9615C7.60014 13.9615 7.63476 16.0215 7.35778 16.9794C7.04041 18.1046 6.84422 19.2876 6.31911 20.3378C6.0479 20.8283 5.75938 21.3072 5.48817 21.7977C5.27467 22.1843 5.07847 22.5767 4.88228 22.9749C4.48412 23.6558 5.51703 24.3367 4.98038 24.9887C4.85343 25.1445 4.7611 25.3407 4.69763 25.5312C4.63992 25.7158 4.66878 25.9582 4.57068 26.1197C4.46104 25.9005 4.42065 25.5773 4.36871 25.335C4.31678 25.0753 4.27062 24.7868 4.31678 24.5213C4.41488 23.9789 4.51875 23.4307 4.7034 22.9114C5.22273 21.6419 5.36699 20.257 5.93249 19.0106C6.09407 18.7221 6.22679 18.4162 6.28449 18.0816C6.46914 16.9563 6.57301 12.5477 7.99253 12.3862C8.26951 12.3573 8.54649 12.3573 8.8177 12.3573C9.539 12.4323 10.2488 12.0053 10.9412 12.2996C10.9527 12.2996 10.9701 12.2881 10.9931 12.2823C10.7277 11.8842 10.1391 12.0746 9.73519 12.0573C9.32549 12.0457 8.91579 12.0226 8.50609 12.0053C8.84078 11.8668 9.21585 11.8784 9.56785 11.7976C10.041 11.7168 9.97178 11.7687 10.1737 11.3187C10.3699 10.9032 10.5604 10.4762 10.8662 10.1299C11.0393 10.2165 11.1374 10.3377 11.1316 10.5281C11.3624 10.3377 11.3567 10.0434 11.4548 9.79526C11.8298 9.77795 12.4011 10.0722 12.4819 9.52405C12.5108 9.25862 12.7531 9.01049 12.6262 8.73928C12.7589 8.63541 12.9493 8.63541 13.0012 8.43922C12.7416 7.94873 12.7127 7.75831 13.0763 7.30822C13.5783 6.64462 13.4513 5.67519 12.5165 5.54824C12.3434 5.20202 12.0203 5.09815 11.651 5.08661C11.0566 4.52111 9.74096 4.54419 9.31972 5.30012C8.05023 5.46746 7.83096 6.80042 8.7196 7.25051C8.57726 6.97738 8.50994 6.78119 8.51764 6.66193C8.88117 7.46979 9.76404 7.76408 10.5834 7.62559C9.56208 8.54309 8.83501 7.3313 7.90597 7.04855C7.95791 7.13511 7.99253 7.19281 8.03292 7.26206C6.90192 7.19281 6.68265 8.57194 7.54244 9.13167C7.16736 10.0145 7.88289 10.8686 8.65613 10.6551C8.89848 10.5858 9.13507 10.4877 9.37166 10.4069C9.00812 12.1496 6.97694 11.5668 6.52108 13.1363C6.03059 15.0059 6.16331 17.0314 5.4247 18.8375C4.77841 20.3782 4.55914 22.0689 3.95902 23.6327C3.53778 24.6656 3.90708 25.6293 4.30524 26.5814C4.34563 26.6737 4.4495 26.7141 4.54183 26.6737C4.78418 26.5583 4.85343 26.264 4.95153 26.039C5.08424 25.7447 5.23428 25.4619 5.39585 25.1907C5.62089 24.8214 5.52857 24.4002 5.37277 24.0078C5.22273 23.6789 5.1131 23.3269 5.32083 22.9922C5.67283 22.3574 6.07675 21.7515 6.4576 21.1341C7.47319 19.4838 7.6867 17.4641 8.27528 15.6349C8.59265 16.1023 8.86386 16.5697 9.16392 17.0429C9.65441 17.7411 10.1218 18.5951 9.54477 19.3857C9.06005 20.1185 8.44262 20.759 8.07331 21.5611C7.10389 23.5404 7.39818 25.7793 7.93482 27.8335C7.96368 27.9663 7.96368 28.0701 7.89443 28.1913C6.73458 30.563 7.81942 33.5174 9.86791 35.035C10.9124 35.8371 13.359 37.851 14.1784 38.9127C13.9591 36.4718 8.96196 33.7194 8.25797 30.8572C8.74268 31.6824 9.36012 32.3806 10.1045 33.0038C14.2707 30.5687 14.8651 25.2426 14.0457 20.9033C14.8189 22.5536 14.7324 24.4521 14.7612 26.2351C14.7728 29.2011 13.6821 31.9882 11.5529 34.0656C12.0434 34.4407 12.4934 34.8331 12.8743 35.3293C13.3186 34.1637 13.8899 33.0558 14.415 31.9248C15.6845 29.3165 15.5806 26.2986 15.1305 23.4942C14.9343 21.665 13.9014 20.0089 13.9822 18.1508C14.0053 17.7815 14.0053 17.4064 14.0399 17.0371C14.1322 15.6291 15.1767 15.104 14.1322 13.6845C14.565 13.5518 15.3844 13.4999 15.8114 13.6384C15.4941 14.6539 15.1882 15.6638 14.8766 16.6563C14.7901 16.662 14.7266 16.6505 14.6573 16.6563C15.0324 18.2604 17.3694 18.1912 17.6695 16.6563C17.5541 16.6505 17.4387 16.662 17.3406 16.6563C17.0001 15.6465 16.6712 14.6539 16.3481 13.6787C16.7289 13.5806 17.0867 13.4248 17.4675 13.3614C17.681 13.3614 17.8715 13.3037 18.0619 13.2229C19.0602 12.767 18.8293 13.1479 19.4006 13.0036C19.2506 13.2633 19.4237 13.4191 19.4756 13.5806C19.1467 14.6193 18.8178 15.6291 18.4947 16.6505H18.2581C18.5812 18.2489 20.8952 18.1739 21.2241 16.6505C21.1317 16.639 21.0394 16.6563 20.9586 16.6505L20.9702 16.6563Z" fill="#BF956B"/>
<path id="Vector_6" fill-rule="evenodd" clip-rule="evenodd" d="M10.5195 33.2918C10.6696 33.4303 10.8023 33.5515 10.9408 33.6784C11.5294 33.0494 11.9794 32.3685 12.3141 31.6011C11.8352 32.2762 11.1831 32.7725 10.5195 33.2918Z" fill="#BF956B"/>
<path id="Vector_7" fill-rule="evenodd" clip-rule="evenodd" d="M51.246 15.4499H53.5022V33.9556H51.246V34.7346H58.7879V33.9556H56.5317V24.8557H65.2392C65.4181 24.8557 65.4701 24.9076 65.4701 25.0865V33.9498H63.3696C63.058 33.9498 63.1388 34.1691 63.1388 34.7288H70.7615V33.9498H68.4303V15.4499H70.7615V14.6709H63.1388V14.8556C63.1215 14.9767 63.1388 15.1614 63.1388 15.4268V15.4499H65.4701V23.9266H56.5259V15.4499H58.7822V14.6709H51.2402V15.4499H51.246ZM185.454 33.9556H186.874V33.9844C186.874 34.2845 186.897 34.498 186.874 34.6307V34.8154H182.673C182.217 34.8154 182.13 32.9573 182.13 32.5592C181.848 32.663 181.963 32.6746 181.709 33.0669C181.605 33.2285 181.461 33.4189 181.334 33.5517C180.018 34.9654 178.749 35.127 176.845 35.127C174.79 35.127 173.036 33.4824 173.036 31.3185C173.036 28.8719 174.271 27.8505 176.458 27.2735C178.858 26.6387 179.938 26.7599 182.055 25.6404C182.055 24.6133 182.003 23.0726 181.715 22.3282C181.144 20.8625 178.812 20.8279 177.808 21.3934C176.498 22.132 176.377 23.6439 176.377 25.3288C175.258 25.3288 174.433 25.5019 174.433 25.098V22.2186C174.433 21.7627 176.037 21.0818 176.464 20.9087C177.197 20.6144 178.178 20.3547 179.176 20.3547C181.473 20.3547 183.873 20.4875 184.571 23.0495C184.9 24.2613 184.773 28.3756 184.773 29.8413C184.773 33.1247 184.744 33.8344 185.454 33.9614V33.9556ZM216.557 33.9556H217.999V34.8096H213.781C213.325 34.8096 213.239 32.9515 213.239 32.5534C212.881 32.6861 213.014 32.9342 212.442 33.5459C211.127 34.9596 209.857 35.1212 207.953 35.1212C205.899 35.1212 204.144 33.4766 204.144 31.3127C204.144 28.8661 205.379 27.8447 207.566 27.2677C208.53 27.0138 209.528 26.8291 210.555 26.6041C211.733 26.3444 212.16 26.1713 213.164 25.6404C213.164 24.6133 213.112 23.0726 212.823 22.3282C212.252 20.8625 209.921 20.8279 208.917 21.3934C207.607 22.132 207.486 23.6439 207.486 25.3288C206.366 25.3288 205.541 25.5019 205.541 25.098V22.2186C205.541 21.7627 207.145 21.0818 207.572 20.9087C209.511 20.1239 213.354 19.9508 214.854 21.5377C215.177 21.8781 215.529 22.5129 215.679 23.0495C216.008 24.2613 215.881 28.3756 215.881 29.8413C215.881 33.1247 215.853 33.8344 216.562 33.9614L216.557 33.9556ZM115.846 33.9556H117.184V34.1576C117.184 34.3595 117.196 34.5038 117.184 34.6134V34.8154H112.984C112.528 34.8154 112.441 32.9573 112.441 32.5592C112.21 32.6399 112.349 32.5476 112.187 32.7727C112.112 32.8765 112.095 32.9458 112.014 33.0669C111.703 33.5517 111.189 34.0421 110.722 34.3422C109.539 35.1039 108.563 35.1212 107.15 35.1212C103.526 35.1212 102.199 30.5857 104.368 28.4506C106.105 26.7426 109.267 27.2735 112.36 25.6347C112.36 24.6075 112.308 23.0668 112.02 22.3225C111.449 20.8568 109.117 20.8222 108.113 21.3877C106.803 22.1263 106.682 23.6381 106.682 25.3231C105.563 25.3231 104.738 25.4962 104.738 25.0922V22.2128C104.738 21.757 106.342 21.076 106.769 20.9029C107.502 20.6086 108.483 20.349 109.481 20.349C111.778 20.349 114.178 20.4817 114.876 23.0438C115.205 24.2555 115.078 28.3698 115.078 29.8355C115.078 33.2458 115.049 33.8806 115.84 33.9671V33.9556H115.846ZM158.333 21.5146H160.434C160.434 22.1897 159.816 27.3831 159.73 28.3525C159.557 30.2394 158.835 33.1016 156.862 33.1016C156.29 33.1016 156.112 32.8765 155.615 32.8708V34.9712C158.772 35.7098 160.439 32.7669 160.67 29.9913C160.78 28.6468 160.953 27.21 161.057 25.8655L161.374 21.5954H166.429V33.9614H164.329V34.7404H171.328V33.9614H169.228V21.5204H171.328V20.7414H158.345V21.5204L158.333 21.5146ZM79.3883 34.3422C77.7149 34.3422 76.8377 33.5747 76.3011 32.2187C75.5798 30.4068 75.5625 27.5793 75.8048 25.4673C76.0645 23.1996 76.7974 21.1222 79.3883 21.1222C83.3814 21.1222 82.9255 27.2042 82.7293 30.0663C82.5158 32.0225 81.7657 34.3422 79.3883 34.3422ZM72.7004 27.4235C72.7004 29.8124 73.0177 31.18 74.4084 33.0208C75.3317 34.2441 77.3398 35.1212 78.9959 35.1212C80.3692 35.1212 81.1771 35.0347 82.2677 34.4288C84.2873 33.3035 85.326 31.5782 85.7299 29.3393C86.2839 26.2636 85.3318 22.5302 82.4235 21.0472C79.8845 19.7546 76.3415 20.2163 74.4373 22.4725C73.514 23.5631 72.7061 25.4327 72.7061 27.4235H72.7004ZM140.872 15.4499V14.6709H155.569C155.569 15.5191 155.644 16.0673 155.644 16.9271V20.9722H154.709C154.698 20.3778 153.959 17.7234 153.757 17.181C153.532 16.5924 153.313 16.1135 152.794 15.8077C152.309 15.5249 151.559 15.4499 150.82 15.4499H146.158V33.9556H148.645V34.7346H140.872V33.9556H143.128V15.4499H140.872ZM178.472 34.1114C180.122 34.1114 181.121 32.865 181.553 31.5955C182.073 30.0606 182.05 28.5776 182.05 26.5695L179.084 27.6485C178.045 27.9948 177.127 28.2717 176.539 29.0681C175.95 29.8586 175.8 31.0531 176.066 32.2418C176.36 33.5517 177.127 34.1114 178.472 34.1114ZM108.783 34.1114C110.433 34.1114 111.431 32.865 111.864 31.5955C112.383 30.0606 112.36 28.5776 112.36 26.5695L109.394 27.6485C108.356 27.9948 107.438 28.2717 106.85 29.0681C106.261 29.8586 106.111 31.0531 106.376 32.2418C106.671 33.5517 107.438 34.1114 108.783 34.1114ZM209.574 34.1114C211.225 34.1114 212.223 32.865 212.656 31.5955C213.175 30.0606 213.152 28.5776 213.152 26.5695C212.817 26.6445 212.719 26.7195 212.419 26.8465C210.694 27.5735 208.478 27.9371 207.641 29.0681C207.053 29.8586 206.903 31.0531 207.168 32.2418C207.462 33.5517 208.23 34.1114 209.574 34.1114ZM94.7087 33.9556H92.2217V27.8909C94.8414 27.8909 97.9747 27.5504 97.9747 30.9261C97.9747 32.9458 96.838 33.9614 94.7087 33.9614V33.9556ZM93.0757 27.1119H92.2217V21.5146C94.0278 21.5146 97.4323 21.1338 97.4323 23.8458C97.4323 25.0576 97.4092 25.9636 96.0878 26.6214C95.2973 27.0138 94.2297 27.1119 93.0814 27.1119H93.0757ZM87.3226 21.5146H89.423V33.9556H87.3226V34.7346H95.4877C100.462 34.7346 102.285 30.8396 99.7463 28.4564C99.2962 28.0294 97.9921 27.4927 97.1957 27.4293L97.7612 27.2215C97.969 27.1407 98.1132 27.083 98.3094 26.9907C101.022 25.6924 100.831 22.8706 98.6383 21.5492C97.8189 21.053 96.5321 20.7414 95.2453 20.7414H87.3168V21.5204L87.3226 21.5146ZM195.5 33.9556H193.013V27.8909C195.633 27.8909 198.766 27.5504 198.766 30.9261C198.766 31.8725 198.559 32.5995 197.935 33.2054C197.439 33.6844 196.452 33.9614 195.5 33.9614V33.9556ZM193.867 27.1119H193.013V21.5146C194.819 21.5146 198.224 21.1338 198.224 23.8458C198.224 25.0576 198.201 25.9636 196.879 26.6214C196.089 27.0138 195.021 27.1119 193.873 27.1119H193.867ZM188.114 21.5146H190.215V33.9556H188.114V34.7346H196.279C200.532 34.7346 202.54 31.9186 201.334 29.4431C201.109 28.9757 200.901 28.7968 200.538 28.4506C200.088 28.0236 198.784 27.487 197.987 27.4235C198.178 27.3023 199.245 27.083 200.065 26.3906C201.692 25.0172 201.357 22.7033 199.436 21.5435C198.616 21.0472 197.33 20.7356 196.043 20.7356H188.114V21.5146ZM122.776 24.2382C122.776 21.1222 125.552 21.5146 127.987 21.5146V27.1119C125.811 27.1119 122.776 27.2965 122.776 24.2325V24.2382ZM119.897 24.1574C119.897 25.9751 121.628 27.2965 123.163 27.4235L122.995 27.487C121.524 27.9428 120.883 28.2025 120.318 29.9394C120.023 30.8396 119.821 33.9556 118.967 33.9556H117.877V34.7346H121.61C122.089 34.7346 122.487 33.3959 122.591 32.9919C123.111 30.9261 122.516 27.8909 125.886 27.8909H127.987V33.9556H125.967V34.7346H132.886V33.9556H130.785V21.5146H132.886V20.7356H124.876C123.139 20.7356 121.241 21.2088 120.364 22.5244C120.214 22.7495 120.127 22.8995 120.041 23.2111C120 23.3554 119.897 23.9612 119.897 24.1574Z" fill="white"/>
</g>
</svg>
