<?xml version="1.0" encoding="utf-8"?><svg viewBox="0 0 800 800" xmlns="http://www.w3.org/2000/svg" xmlns:xlink="http://www.w3.org/1999/xlink"><style>:root>svg{display:none}:root>svg:target{display:block}</style><svg viewBox="0 0 84 84" id="IndividualIcon" xmlns="http://www.w3.org/2000/svg"><g><path d="M77.665 38.01c-1.016-.665-2.416-.945-3.816-.7-1.434.245-2.66.98-3.36 1.995l-6.23 9.31v-9.8c0-4.865-3.955-8.82-8.82-8.82H38.99c-4.864 0-8.82 3.955-8.82 8.82v5.74h-.595c-3.01 0-5.88 1.015-8.015 2.905l-5.005 4.34-2.764-2.765-.595-.56c-.386-.385-1.015-.35-1.366 0L4.55 55.79a.977.977 0 00-.28.7c0 .28.106.525.28.7L25.2 77.84c.175.175.455.28.7.28.245 0 .49-.105.7-.28l7.315-7.315a.977.977 0 00.28-.7.977.977 0 00-.28-.7l-2.03-2.03h27.93c3.57 0 7.946-5.88 11.76-11.585l7.386-11.06a4.667 4.667 0 00-1.295-6.44zm-45.5.805c0-3.78 3.08-6.86 6.86-6.86h16.45c3.78 0 6.86 3.08 6.86 6.86v12.18c-.316.175-.666.245-1.05.245H59.57a4.627 4.627 0 00-2.066-3.01v-5.845c0-.56-.454-.98-.98-.98-.525 0-.98.455-.98.98v5.145c-.174-.035-.35-.035-.524-.035H42.77c-1.086-.98-2.416-1.715-3.816-2.24V42.35c0-.56-.455-.98-.98-.98-.524 0-.98.455-.98.98v2.345c-.734-.14-1.505-.21-2.31-.21h-2.52v-5.67zM25.9 75.74L6.65 56.49l5.915-5.915 19.25 19.25-5.916 5.915zm51.414-32.375l-7.384 11.06c-4.726 7.105-8.156 10.71-10.116 10.71h-29.89L17.954 53.2l4.9-4.27c1.75-1.54 4.2-2.415 6.72-2.415h5.11c2.66 0 5.25.98 7.035 2.695.175.175.42.28.666.28H55.02c1.434 0 2.59 1.155 2.66 2.59V52.36c-.105 1.435-1.225 2.555-2.66 2.555H42.383c-.56 0-.98.455-.98.98 0 .525.455.98.98.98H55.02c2.204 0 4.06-1.575 4.514-3.64h1.715c1.435 0 2.8-.735 3.605-1.925l7.28-10.92c.385-.56 1.12-.98 2.03-1.12.91-.14 1.82 0 2.415.385 1.226.805 1.54 2.485.736 3.71z"/><path d="M13.93 56.945a1.155 1.155 0 100-2.31 1.155 1.155 0 000 2.31zM47.25 26.88c5.775 0 10.5-4.725 10.5-10.5s-4.725-10.5-10.5-10.5-10.5 4.725-10.5 10.5 4.725 10.5 10.5 10.5zm0-19.04c4.69 0 8.54 3.815 8.54 8.54a8.53 8.53 0 01-8.54 8.54c-4.69 0-8.54-3.815-8.54-8.54s3.85-8.54 8.54-8.54z"/></g></svg><svg viewBox="0 0 84 84" id="certificateIcon" xmlns="http://www.w3.org/2000/svg"><path d="M63.07 4.27H20.93c-3.01 0-5.495 2.45-5.495 5.495V64.68c0 3.01 2.45 5.495 5.495 5.495h14.735v8.61c0 .35.21.7.49.875.315.175.7.175 1.015-.035L42 76.58l4.83 3.01c.175.105.35.14.525.14a.875.875 0 00.49-.14c.315-.175.49-.49.49-.875v-8.61H63.07c3.01 0 5.495-2.45 5.495-5.495V9.765c0-3.045-2.485-5.495-5.495-5.495zM33.985 54.425c-.525-.455-.35-1.015-.28-1.19.07-.175.35-.7 1.015-.665a3.19 3.19 0 002.31-.875c.595-.595.91-1.435.875-2.275-.035-.7.49-.98.665-1.015.175-.07.735-.245 1.19.28.56.63 1.4 1.015 2.24 1.015.84 0 1.68-.35 2.24-.98.455-.525 1.015-.35 1.19-.28.175.07.7.35.665 1.015-.035.84.28 1.68.875 2.275s1.47.91 2.31.875c.7-.035.98.49 1.015.665.07.175.245.735-.28 1.19-.63.56-1.015 1.4-1.015 2.24 0 .84.35 1.68 1.015 2.24.525.455.35 1.015.28 1.19-.07.175-.35.7-1.015.665a3.19 3.19 0 00-2.31.875 2.76 2.76 0 00-.42.525c-.035.07-.105.14-.105.245-.245.455-.35.98-.35 1.505.035.7-.49.98-.665 1.015-.175.07-.735.245-1.19-.28-.56-.63-1.4-.98-2.24-.98-.84 0-1.68.35-2.24 1.015-.455.525-1.015.35-1.19.28-.175-.07-.7-.35-.665-1.015a2.812 2.812 0 00-.35-1.505c-.035-.07-.07-.175-.105-.245-.105-.175-.245-.385-.42-.525a3.019 3.019 0 00-2.135-.875h-.14c-.7.035-.98-.49-1.015-.665-.07-.175-.245-.735.28-1.19.63-.56 1.015-1.4 1.015-2.24 0-.84-.42-1.75-1.05-2.31zm12.39 22.54l-3.85-2.415a.954.954 0 00-1.05 0l-3.85 2.415v-10.29c.07.035.105.07.175.105.385.175.77.245 1.155.245.84 0 1.645-.35 2.24-1.015a1.08 1.08 0 011.575 0c.875.98 2.205 1.26 3.395.77.07-.035.105-.07.175-.105v10.29h.035zm20.195-12.32c0 1.925-1.575 3.535-3.535 3.535H48.3v-5.145s0-.035.035-.035c.21-.21.49-.315.805-.315a2.974 2.974 0 002.94-1.855c.49-1.19.21-2.52-.77-3.395-.21-.21-.35-.49-.35-.77s.14-.595.35-.77c.98-.875 1.26-2.205.77-3.395a2.974 2.974 0 00-2.94-1.855c-.315 0-.595-.105-.805-.315-.21-.21-.315-.49-.315-.805a2.974 2.974 0 00-1.855-2.94c-1.19-.49-2.52-.21-3.395.77-.21.21-.49.35-.77.35-.315 0-.595-.14-.77-.35-.875-.98-2.205-1.26-3.395-.77a2.974 2.974 0 00-1.855 2.94c0 .315-.105.595-.315.805-.21.21-.49.315-.805.315a2.974 2.974 0 00-2.94 1.855c-.49 1.19-.21 2.52.77 3.395.21.21.35.49.35.77s-.14.595-.35.77c-.945.875-1.26 2.205-.77 3.395a2.974 2.974 0 002.94 1.855c.315 0 .595.105.805.315 0 0 0 .035.035.035v5.145H20.93c-1.925 0-3.535-1.575-3.535-3.535V9.765c0-1.925 1.575-3.535 3.535-3.535h42.105c1.925 0 3.535 1.575 3.535 3.535v54.88z"/><path d="M30.275 14.21H51.59c.56 0 .98-.455.98-.98 0-.525-.455-.98-.98-.98H30.275c-.56 0-.98.455-.98.98 0 .525.455.98.98.98zM57.995 18.655h-34.09c-.56 0-.98.455-.98.98 0 .525.455.98.98.98h34.09c.56 0 .98-.455.98-.98 0-.525-.455-.98-.98-.98zM57.995 25.025h-34.09c-.56 0-.98.455-.98.98 0 .525.455.98.98.98h34.09c.56 0 .98-.455.98-.98 0-.525-.455-.98-.98-.98zM57.995 31.43h-34.09c-.56 0-.98.455-.98.98 0 .525.455.98.98.98h34.09c.56 0 .98-.455.98-.98 0-.525-.455-.98-.98-.98zM57.995 37.835h-34.09c-.56 0-.98.455-.98.98 0 .525.455.98.98.98h34.09c.56 0 .98-.455.98-.98 0-.525-.455-.98-.98-.98z"/></svg><svg viewBox="0 0 72 72" id="contractIcon" xmlns="http://www.w3.org/2000/svg"><g clip-path="url(#cclip0_0_1230)"><path d="M40.738 54.003a1.124 1.124 0 01-.795-1.92l.795-.795a1.124 1.124 0 111.59 1.59l-.795.796c-.22.22-.507.33-.795.33z"/><path d="M41.534 53.208a1.124 1.124 0 01-1.082-1.432l1.263-4.443a1.12 1.12 0 011.39-.774c.597.17.945.792.774 1.39l-1.264 4.442c-.14.494-.592.817-1.081.817z"/><path d="M41.532 53.208a1.125 1.125 0 01-.307-2.207l4.445-1.261a1.125 1.125 0 11.615 2.163l-4.445 1.261a1.08 1.08 0 01-.308.044z"/><path d="M47.103 50.822c-.288 0-.576-.11-.796-.33l-3.181-3.181a1.124 1.124 0 111.59-1.591l3.182 3.181a1.124 1.124 0 01-.795 1.92zM60.296 37.628c-.288 0-.576-.11-.795-.33l-3.182-3.183a1.124 1.124 0 111.59-1.59l3.182 3.182a1.124 1.124 0 01-.795 1.92z"/><path d="M42.796 48.765a1.124 1.124 0 01-.795-1.92l24-24.002a1.124 1.124 0 111.591 1.59l-24 24.003c-.22.22-.508.33-.796.33zM45.978 51.947a1.124 1.124 0 01-.795-1.92l24-24.001a1.124 1.124 0 111.59 1.59l-24 24.001c-.22.22-.507.33-.795.33z"/><path d="M69.979 27.946a1.124 1.124 0 01-.795-1.92 1.126 1.126 0 00-1.59-1.59 1.126 1.126 0 01-1.59-1.593 3.386 3.386 0 014.77-.001 3.38 3.38 0 010 4.774c-.22.22-.507.33-.795.33z"/><path d="M69.979 32.718a1.124 1.124 0 01-.795-1.92 1.122 1.122 0 000-1.59 1.126 1.126 0 011.59-1.593c.637.637.99 1.485.99 2.388 0 .9-.353 1.749-.99 2.386-.22.22-.507.33-.795.33z"/><path d="M62.355 40.343a1.124 1.124 0 01-.795-1.92l7.623-7.625a1.124 1.124 0 111.591 1.59l-7.624 7.626c-.22.22-.507.33-.795.33zM69.978 29.537c-.288 0-.576-.11-.795-.33l-3.977-3.978a1.124 1.124 0 111.59-1.59l3.977 3.977a1.124 1.124 0 01-.795 1.92zM51.987 68.625H4.737A1.124 1.124 0 013.612 67.5V1.125C3.612.503 4.115 0 4.737 0h40.5c.3 0 .585.118.796.33l6.75 6.75c.21.21.33.496.33.795v30.573a1.124 1.124 0 11-2.25 0V8.341L44.771 2.25H5.862v64.125h45V44.811a1.124 1.124 0 112.25 0V67.5c0 .622-.503 1.125-1.125 1.125z"/><path d="M45.237 9a1.124 1.124 0 01-1.125-1.125v-6.75a1.124 1.124 0 112.25 0v6.75c0 .622-.503 1.125-1.125 1.125z"/><path d="M51.987 9h-6.75a1.124 1.124 0 110-2.25h6.75a1.124 1.124 0 110 2.25zM42.987 31.508h-29.25a1.124 1.124 0 110-2.25h29.25a1.124 1.124 0 110 2.25zM42.987 37.132h-29.25a1.124 1.124 0 110-2.25h29.25a1.124 1.124 0 110 2.25zM42.987 42.756h-29.25a1.124 1.124 0 110-2.25h29.25a1.124 1.124 0 110 2.25z"/><g><path d="M28.362 48.38H13.737a1.124 1.124 0 110-2.25h14.625a1.124 1.124 0 110 2.25z"/></g><g><path d="M42.987 59.628h-7.875a1.124 1.124 0 110-2.25h7.875a1.124 1.124 0 110 2.25z"/></g><g><path d="M40.737 61.878a1.124 1.124 0 01-1.125-1.125v-4.5a1.124 1.124 0 112.25 0v4.5c0 .623-.503 1.125-1.125 1.125z"/></g><g><path d="M40.739 61.878c-.343 0-.68-.155-.901-.45l-3.375-4.5a1.123 1.123 0 111.799-1.349l3.375 4.5a1.123 1.123 0 01-.898 1.8z"/></g><g><path d="M37.362 61.878a1.124 1.124 0 01-1.125-1.125v-4.5a1.124 1.124 0 112.25 0v4.5c0 .623-.503 1.125-1.125 1.125z"/></g><g><path d="M48.612 72a1.124 1.124 0 01-1.125-1.125V67.5a1.124 1.124 0 112.25 0v3.375c0 .622-.503 1.125-1.125 1.125z"/></g><g><path d="M48.612 72H1.362a1.124 1.124 0 110-2.25h47.25a1.124 1.124 0 110 2.25z"/></g><g><path d="M1.362 72a1.124 1.124 0 01-1.125-1.125V4.5a1.124 1.124 0 112.25 0v66.375c0 .622-.503 1.125-1.125 1.125z"/></g><g><path d="M4.737 5.625H1.362a1.124 1.124 0 110-2.25h3.375a1.124 1.124 0 110 2.25z"/></g><g><path d="M21.614 23.64c-3.62 0-6.923-1.885-8.837-5.04a1.131 1.131 0 010-1.167c1.914-3.157 5.218-5.041 8.837-5.041 3.618 0 6.921 1.884 8.836 5.041.218.358.218.809 0 1.167-1.915 3.156-5.218 5.04-8.836 5.04zm-6.527-5.624c1.537 2.126 3.93 3.375 6.527 3.375 2.595 0 4.988-1.249 6.526-3.375-1.538-2.126-3.93-3.375-6.526-3.375-2.598 0-4.99 1.248-6.527 3.375z"/><path d="M21.612 21.372a3.38 3.38 0 01-3.375-3.375 3.38 3.38 0 013.375-3.375 3.38 3.38 0 013.375 3.375 3.38 3.38 0 01-3.375 3.375zm0-4.5a1.125 1.125 0 10.001 2.25 1.125 1.125 0 000-2.25z"/></g></g><defs><clipPath id="cclip0_0_1230"><path d="M0 0h72v72H0z"/></clipPath></defs></svg><svg viewBox="0 0 512 512" id="cross" xmlns="http://www.w3.org/2000/svg"><path d="M512 59.076L452.922 0 256 196.922 59.076 0 0 59.076 196.922 256 0 452.922 59.076 512 256 315.076 452.922 512 512 452.922 315.076 256z"/></svg><svg viewBox="0 0 32 32" id="phoneIcon" xmlns="http://www.w3.org/2000/svg"><path clip-rule="evenodd" d="M15.375 16.63c5.32 5.317 6.526-.834 9.912 2.55 3.265 3.264 5.142 3.918 1.005 8.053-.518.416-3.81 5.426-15.38-6.14C-.658 9.525 4.348 6.23 4.765 5.712c4.147-4.147 4.79-2.26 8.054 1.004 3.386 3.386-2.762 4.597 2.556 9.914z" stroke="#fff" stroke-width="2" stroke-linecap="round" stroke-linejoin="round"/></svg><svg viewBox="0 0 84 84" id="scaleIcon" xmlns="http://www.w3.org/2000/svg"><path d="M79.485 64.05a2.687 2.687 0 00-2.415-1.505h-3.99V32.06a7.035 7.035 0 00-7.035-7.035h-5.46l-1.12-2.835s0-.035-.035-.035v-.035s0-.035-.035-.035l-.035-.035c0-.035-.035-.035-.035-.07-.035-.035-.035-.07-.07-.07l-.035-.035-.07-.07c-.035 0-.035-.035-.07-.035l-.035-.035s-.035 0-.035-.035c-.035 0-.07-.035-.07-.035-.035 0-.07-.035-.105-.035H58.66L42.98 21v-2.835c1.645-.42 2.87-1.96 2.87-3.745a3.899 3.899 0 00-3.885-3.885 3.899 3.899 0 00-3.885 3.885c0 1.785 1.225 3.29 2.87 3.745V21l-15.505.56h-.14-.035c-.035 0-.07.035-.105.035-.035 0-.035 0-.07.035 0 0-.035 0-.035.035 0 0-.035 0-.035.035-.035 0-.035.035-.07.035-.07.035-.105.07-.14.07l-.035.035c-.035.07-.07.07-.07.105 0 .035-.035.035-.035.07l-.035.035s0 .035-.035.035v.035s0 .035-.035.035l-1.155 2.87h-5.11c-4.06 0-7.245 3.08-7.245 7.035v30.52H6.965c-1.05 0-1.96.56-2.415 1.505a2.59 2.59 0 00.28 2.695l1.61 2.065c2.275 2.905 5.88 4.62 9.66 4.62h51.8c3.78 0 7.385-1.715 9.66-4.62l1.61-2.065c.63-.805.735-1.82.315-2.73zM50.96 40.075h15.155c.035 0 .07 0 .105.035.035.035.035.07.035.105-.56 3.78-3.85 6.65-7.7 6.65s-7.14-2.87-7.7-6.65c0-.035 0-.07.035-.105 0-.035.035-.035.07-.035zm2.415-1.995L58.52 25.2l5.145 12.88h-10.29zm-9.94 13.72c1.505 0 2.765.98 3.185 2.345h-9.275A3.319 3.319 0 0140.53 51.8h2.905zM42 28.07l-11.83-4.69L42 22.925l11.83.42L42 28.07zM17.92 40.075h15.155c.035 0 .07 0 .105.035.035.035.035.07.035.105-.56 3.78-3.85 6.65-7.7 6.65s-7.14-2.87-7.7-6.65c0-.035 0-.07.035-.105 0-.035.035-.035.07-.035zm2.415-1.995l4.69-11.69.455-1.19 5.145 12.88h-10.29zM40.11 14.42c0-1.05.84-1.89 1.89-1.89 1.05 0 1.89.84 1.89 1.89 0 1.05-.84 1.89-1.89 1.89-1.05 0-1.89-.84-1.89-1.89zM13.055 32.06c0-2.835 2.31-5.04 5.285-5.04h4.34L18.2 38.08h-.28c-.595 0-1.19.28-1.575.735a2.152 2.152 0 00-.49 1.645c.7 4.76 4.83 8.33 9.625 8.33s8.96-3.57 9.625-8.33a2.277 2.277 0 00-.49-1.68 2.103 2.103 0 00-1.575-.735h-.28l-5.53-13.72 13.755 5.495v20.02h-.455c-2.94 0-5.32 2.38-5.32 5.32 0 .56.455.98.98.98h11.55c.56 0 .98-.455.98-.98 0-2.94-2.38-5.32-5.32-5.32h-.455V29.785L56.7 24.29l-5.495 13.79h-.315c-.595 0-1.19.28-1.575.735-.385.455-.56 1.05-.49 1.68.7 4.76 4.83 8.33 9.625 8.33s8.96-3.57 9.625-8.33a2.277 2.277 0 00-.49-1.68 2.103 2.103 0 00-1.575-.735h-.21l-4.445-11.095h4.69c2.8 0 5.04 2.275 5.04 5.04v30.52h-23.31a4.49 4.49 0 00-4.095 2.59c-.28.665-.945 1.05-1.68 1.05-.77 0-1.4-.385-1.715-1.05-.7-1.575-2.31-2.59-4.095-2.59H13.055V32.06zM77.63 65.555l-1.61 2.065c-1.89 2.415-4.935 3.885-8.12 3.885H16.1c-3.185 0-6.195-1.435-8.12-3.885l-1.61-2.065c-.21-.245-.14-.49-.07-.63.035-.105.21-.385.665-.385h29.26c1.015 0 1.89.56 2.275 1.435.63 1.365 1.96 2.205 3.5 2.205s2.87-.84 3.5-2.205c.385-.875 1.295-1.435 2.275-1.435h29.26c.42 0 .595.28.665.385.07.14.14.35-.07.63z"/></svg><svg viewBox="0 0 84 84" id="timeMoneyIcon" xmlns="http://www.w3.org/2000/svg"><path d="M47.6 7.42c-12.32 0-23.31 6.79-28.91 17.71-1.26.245-2.52.63-3.745 1.12a.98.98 0 00-.63.91V42.455c-3.29-.315-6.65.175-9.73 1.4a.98.98 0 00-.63.91V73.99c0 .385.245.77.63.91 2.485.98 5.11 1.505 7.735 1.505 1.645 0 3.29-.21 4.9-.595 1.785.49 3.64.735 5.46.735 1.785 0 3.57-.245 5.285-.7 1.75.455 3.535.7 5.32.7 2.625 0 5.25-.49 7.735-1.505a.98.98 0 00.63-.91v-2.485c1.96.35 3.955.56 5.95.56 17.885 0 32.41-14.525 32.41-32.41 0-17.85-14.525-32.375-32.41-32.375zM24.92 68.565c-2.905.35-5.88.035-8.645-.98V63.7a20.948 20.948 0 006.405 1.015c.735 0 1.505-.07 2.24-.14V68.565zM16.275 34.58c2.1.665 4.235 1.015 6.405 1.015s4.305-.35 6.405-1.015v3.815a18.737 18.737 0 01-12.81 0V34.58zm12.81-2.065a18.737 18.737 0 01-12.81 0V28.84c2.1.665 4.235 1.015 6.405 1.015s4.305-.35 6.405-1.015v3.675zm7.42 20.58c.315-.035.63-.105.945-.175H37.555c.7-.14 1.4-.35 2.1-.56v3.815c-.98.35-1.96.595-2.94.805-.245.035-.525.07-.805.105-.28.035-.595.07-.875.105-.21.035-.42.035-.665.035-.28.035-.595.035-.875.035h-.63c-.315 0-.63-.035-.945-.035-.21 0-.385-.035-.595-.035-.315-.035-.665-.07-.98-.14-.175-.035-.35-.07-.525-.07-.35-.07-.7-.14-1.05-.245-.14-.035-.315-.07-.455-.105-.49-.14-.98-.28-1.47-.455V52.36c2.1.665 4.235 1.015 6.405 1.015 1.05 0 2.135-.07 3.185-.245.035 0 .07 0 .07-.035zM24.92 56.7c-2.905.35-5.88.035-8.645-.98v-3.57a20.948 20.948 0 006.405 1.015c.735 0 1.505-.07 2.24-.14V56.7zm-10.605-.28v.63c-2.835.28-5.705-.035-8.365-1.015V52.22a20.948 20.948 0 006.405 1.015c.665 0 1.33-.035 1.96-.105v3.29zM5.95 58.1a20.948 20.948 0 006.405 1.015c.665 0 1.33-.035 1.96-.105V63c-2.835.28-5.705-.035-8.365-1.015V58.1zm10.325-.28a20.948 20.948 0 006.405 1.015c.735 0 1.505-.07 2.24-.14v3.92c-2.905.35-5.88.035-8.645-.98V57.82zm10.605.42a20.895 20.895 0 006.37 1.015c.385 0 .805 0 1.19-.035.07 0 .175 0 .245-.035.35-.035.665-.07 1.015-.105.07 0 .14 0 .21-.035.84-.105 1.645-.28 2.45-.455H38.465c.385-.105.805-.21 1.19-.35v3.885a18.737 18.737 0 01-12.81 0V58.24h.035zm12.81-7.945c-.945.35-1.89.595-2.835.77-.245.035-.455.07-.7.105-.245.035-.525.07-.77.105-.245.035-.455.07-.7.07-.28.035-.595.035-.875.035h-.91c-.35 0-.7-.035-1.05-.035-.21 0-.42-.035-.595-.07-.28-.035-.595-.07-.875-.105-.21-.035-.385-.07-.595-.105l-.945-.21c-.175-.035-.35-.07-.49-.14-.49-.14-.945-.28-1.435-.455v-3.675c2.1.665 4.235 1.015 6.405 1.015s4.305-.35 6.405-1.015v3.71h-.035zm-14.77.56v.245c-2.905.35-5.88.035-8.645-.98v-3.675a20.948 20.948 0 006.405 1.015c.735 0 1.505-.07 2.24-.14v3.535zm-10.605-.35v.63c-2.835.28-5.705-.035-8.365-1.015v-3.675a20.948 20.948 0 006.405 1.015c.665 0 1.33-.035 1.96-.105v3.15zM5.95 64.05a20.948 20.948 0 006.405 1.015c.665 0 1.295-.035 1.96-.105V68.74c-2.835.28-5.705-.035-8.365-1.015V64.05zm20.93.14c2.1.665 4.235 1.015 6.405 1.015s4.305-.35 6.405-1.015v3.675a18.737 18.737 0 01-12.81 0V64.19zm1.785-19.11c.49-.14 1.015-.245 1.54-.315h.07c2.52-.42 5.11-.315 7.63.35a19.192 19.192 0 01-9.24-.035zm-3.115-1.05a.98.98 0 00-.63.91v.42c-2.905.35-5.88.035-8.645-.98v-3.885c2.1.665 4.235 1.015 6.405 1.015s4.305-.35 6.405-1.015v2.485c-1.19.21-2.38.56-3.535 1.05zM18.095 27.3c.455-.105.945-.21 1.4-.315h.035a18.2 18.2 0 017.77.315c-3.045.77-6.195.77-9.205 0zm-3.78 17.15v.945c-2.205.245-4.41.07-6.58-.455 2.17-.56 4.375-.7 6.58-.49zM5.95 73.36v-3.57a20.948 20.948 0 006.405 1.015c.665 0 1.33-.035 1.96-.105v3.465c0 .07 0 .105.035.175-2.835.315-5.705 0-8.4-.98zm10.325.14v-3.815A20.948 20.948 0 0022.68 70.7c.735 0 1.505-.07 2.24-.14v3.64c0 .105 0 .21.035.28-2.905.35-5.915 0-8.68-.98zm10.605 0v-3.57c2.1.665 4.235 1.015 6.405 1.015s4.305-.35 6.405-1.015v3.57a18.736 18.736 0 01-12.81 0zm20.72-3.22c-1.995 0-3.99-.21-5.95-.595V45.08v-.07c.035-.42-.21-.805-.63-.98a20.385 20.385 0 00-9.975-1.365V39.13 27.16a.98.98 0 00-.63-.91 20.741 20.741 0 00-9.31-1.435C26.53 15.26 36.505 9.38 47.6 9.38c16.8 0 30.45 13.65 30.45 30.45 0 16.8-13.65 30.45-30.45 30.45z"/><path d="M57.05 38.85h-8.435V27.265c0-.56-.455-.98-.98-.98-.525 0-.98.455-.98.98V39.83c0 .56.455.98.98.98h9.415c.56 0 .98-.455.98-.98 0-.525-.455-.98-.98-.98zM47.6 18.83c.56 0 .98-.455.98-.98V14.7c0-.56-.455-.98-.98-.98-.525 0-.98.455-.98.98v3.15c0 .525.455.98.98.98zM47.6 60.655c-.56 0-.98.455-.98.98v3.15c0 .56.455.98.98.98.525 0 .98-.455.98-.98v-3.15c0-.56-.42-.98-.98-.98zM30.59 21.315a.993.993 0 00-1.4 0 .993.993 0 000 1.4l2.24 2.24c.175.175.455.28.7.28.245 0 .49-.105.7-.28a.993.993 0 000-1.4l-2.24-2.24zM63.805 54.53a.993.993 0 00-1.4 0 .993.993 0 000 1.4l2.24 2.24c.175.175.455.28.7.28.245 0 .49-.105.7-.28a.993.993 0 000-1.4l-2.24-2.24zM72.66 38.745h-3.15c-.56 0-.98.455-.98.98 0 .525.455.98.98.98h3.15c.56 0 .98-.455.98-.98 0-.525-.455-.98-.98-.98zM64.61 21.315l-2.24 2.24a.993.993 0 000 1.4c.175.175.455.28.7.28.245 0 .49-.105.7-.28l2.24-2.24a.993.993 0 000-1.4.993.993 0 00-1.4 0z"/></svg></svg>