<svg width="84" height="84" viewBox="0 0 84 84" fill="none" xmlns="http://www.w3.org/2000/svg">
<path d="M63.0696 4.27002H20.9296C17.9196 4.27002 15.4346 6.72002 15.4346 9.76502V64.68C15.4346 67.69 17.8846 70.175 20.9296 70.175H35.6646V78.785C35.6646 79.135 35.8746 79.485 36.1546 79.66C36.4696 79.835 36.8546 79.835 37.1696 79.625L41.9996 76.58L46.8296 79.59C47.0046 79.695 47.1796 79.73 47.3546 79.73C47.5296 79.73 47.6696 79.695 47.8446 79.59C48.1596 79.415 48.3346 79.1 48.3346 78.715V70.105H63.0696C66.0796 70.105 68.5646 67.655 68.5646 64.61V9.76502C68.5646 6.72002 66.0796 4.27002 63.0696 4.27002ZM33.9846 54.425C33.4596 53.97 33.6346 53.41 33.7046 53.235C33.7746 53.06 34.0546 52.535 34.7196 52.57C35.5596 52.605 36.3996 52.29 37.0296 51.695C37.6246 51.1 37.9396 50.26 37.9046 49.42C37.8696 48.72 38.3946 48.44 38.5696 48.405C38.7446 48.335 39.3046 48.16 39.7596 48.685C40.3196 49.315 41.1596 49.7 41.9996 49.7C42.8396 49.7 43.6796 49.35 44.2396 48.72C44.6946 48.195 45.2546 48.37 45.4296 48.44C45.6046 48.51 46.1296 48.79 46.0946 49.455C46.0596 50.295 46.3746 51.135 46.9696 51.73C47.5646 52.325 48.4396 52.64 49.2796 52.605C49.9796 52.57 50.2596 53.095 50.2946 53.27C50.3646 53.445 50.5396 54.005 50.0146 54.46C49.3846 55.02 48.9996 55.86 48.9996 56.7C48.9996 57.54 49.3496 58.38 50.0146 58.94C50.5396 59.395 50.3646 59.955 50.2946 60.13C50.2246 60.305 49.9446 60.83 49.2796 60.795C48.4396 60.76 47.5996 61.075 46.9696 61.67C46.7946 61.845 46.6546 62.02 46.5496 62.195C46.5146 62.265 46.4446 62.335 46.4446 62.44C46.1996 62.895 46.0946 63.42 46.0946 63.945C46.1296 64.645 45.6046 64.925 45.4296 64.96C45.2546 65.03 44.6946 65.205 44.2396 64.68C43.6796 64.05 42.8396 63.7 41.9996 63.7C41.1596 63.7 40.3196 64.05 39.7596 64.715C39.3046 65.24 38.7446 65.065 38.5696 64.995C38.3946 64.925 37.8696 64.645 37.9046 63.98C37.9396 63.455 37.7996 62.93 37.5546 62.475C37.5196 62.405 37.4846 62.3 37.4496 62.23C37.3446 62.055 37.2046 61.845 37.0296 61.705C36.4696 61.145 35.6996 60.83 34.8946 60.83C34.8596 60.83 34.7896 60.83 34.7546 60.83C34.0546 60.865 33.7746 60.34 33.7396 60.165C33.6696 59.99 33.4946 59.43 34.0196 58.975C34.6496 58.415 35.0346 57.575 35.0346 56.735C35.0346 55.895 34.6146 54.985 33.9846 54.425ZM46.3746 76.965L42.5246 74.55C42.2096 74.34 41.7896 74.34 41.4746 74.55L37.6246 76.965V66.675C37.6946 66.71 37.7296 66.745 37.7996 66.78C38.1846 66.955 38.5696 67.025 38.9546 67.025C39.7946 67.025 40.5996 66.675 41.1946 66.01C41.6146 65.555 42.3496 65.555 42.7696 66.01C43.6446 66.99 44.9746 67.27 46.1646 66.78C46.2346 66.745 46.2696 66.71 46.3396 66.675V76.965H46.3746ZM66.5696 64.645C66.5696 66.57 64.9946 68.18 63.0346 68.18H48.2996V63.035C48.2996 63.035 48.2996 63 48.3346 63C48.5446 62.79 48.8246 62.685 49.1396 62.685C50.4346 62.755 51.5896 62.02 52.0796 60.83C52.5696 59.64 52.2896 58.31 51.3096 57.435C51.0996 57.225 50.9596 56.945 50.9596 56.665C50.9596 56.385 51.0996 56.07 51.3096 55.895C52.2896 55.02 52.5696 53.69 52.0796 52.5C51.5896 51.31 50.4346 50.575 49.1396 50.645C48.8246 50.645 48.5446 50.54 48.3346 50.33C48.1246 50.12 48.0196 49.84 48.0196 49.525C48.0896 48.23 47.3546 47.075 46.1646 46.585C44.9746 46.095 43.6446 46.375 42.7696 47.355C42.5596 47.565 42.2796 47.705 41.9996 47.705C41.6846 47.705 41.4046 47.565 41.2296 47.355C40.3546 46.375 39.0246 46.095 37.8346 46.585C36.6446 47.075 35.9096 48.23 35.9796 49.525C35.9796 49.84 35.8746 50.12 35.6646 50.33C35.4546 50.54 35.1746 50.645 34.8596 50.645C33.5646 50.575 32.4096 51.31 31.9196 52.5C31.4296 53.69 31.7096 55.02 32.6896 55.895C32.8996 56.105 33.0396 56.385 33.0396 56.665C33.0396 56.945 32.8996 57.26 32.6896 57.435C31.7446 58.31 31.4296 59.64 31.9196 60.83C32.4096 62.02 33.5646 62.755 34.8596 62.685C35.1746 62.685 35.4546 62.79 35.6646 63C35.6646 63 35.6646 63.035 35.6996 63.035V68.18H20.9296C19.0046 68.18 17.3946 66.605 17.3946 64.645V9.76502C17.3946 7.84002 18.9696 6.23002 20.9296 6.23002H63.0346C64.9596 6.23002 66.5696 7.80502 66.5696 9.76502V64.645Z" fill="#DCBB8E"/>
<path d="M30.2749 14.21H51.5899C52.1499 14.21 52.5699 13.755 52.5699 13.23C52.5699 12.705 52.1149 12.25 51.5899 12.25H30.2749C29.7149 12.25 29.2949 12.705 29.2949 13.23C29.2949 13.755 29.7499 14.21 30.2749 14.21Z" fill="#DCBB8E"/>
<path d="M57.9948 18.655H23.9048C23.3448 18.655 22.9248 19.11 22.9248 19.635C22.9248 20.16 23.3798 20.615 23.9048 20.615H57.9948C58.5548 20.615 58.9748 20.16 58.9748 19.635C58.9748 19.11 58.5198 18.655 57.9948 18.655Z" fill="#DCBB8E"/>
<path d="M57.9948 25.025H23.9048C23.3448 25.025 22.9248 25.48 22.9248 26.005C22.9248 26.53 23.3798 26.985 23.9048 26.985H57.9948C58.5548 26.985 58.9748 26.53 58.9748 26.005C58.9748 25.48 58.5198 25.025 57.9948 25.025Z" fill="#DCBB8E"/>
<path d="M57.9948 31.4301H23.9048C23.3448 31.4301 22.9248 31.8851 22.9248 32.4101C22.9248 32.9351 23.3798 33.3901 23.9048 33.3901H57.9948C58.5548 33.3901 58.9748 32.9351 58.9748 32.4101C58.9748 31.8851 58.5198 31.4301 57.9948 31.4301Z" fill="#DCBB8E"/>
<path d="M57.9948 37.835H23.9048C23.3448 37.835 22.9248 38.29 22.9248 38.815C22.9248 39.34 23.3798 39.795 23.9048 39.795H57.9948C58.5548 39.795 58.9748 39.34 58.9748 38.815C58.9748 38.29 58.5198 37.835 57.9948 37.835Z" fill="#DCBB8E"/>
</svg>
