<svg width="72" height="72" viewBox="0 0 72 72" fill="none" xmlns="http://www.w3.org/2000/svg">
<g id="44 witness, testimony, document, law, lawyer, court, justice" clip-path="url(#clip0_0_1230)">
<g id="_x34_4">
<g id="Group">
<g id="Group_2">
<g id="Group_3">
<path id="Vector" d="M40.7376 54.0034C40.4496 54.0034 40.1616 53.8932 39.9422 53.6738C39.5023 53.2339 39.5023 52.5229 39.9422 52.083L40.7376 51.2877C41.1775 50.8478 41.8885 50.8478 42.3283 51.2877C42.7682 51.7275 42.7682 52.4385 42.3283 52.8784L41.533 53.6738C41.3136 53.8932 41.0256 54.0034 40.7376 54.0034Z" fill="#DCBB8E"/>
</g>
<g id="Group_4">
<path id="Vector_2" d="M41.534 53.2079C41.4317 53.2079 41.3282 53.1944 41.2258 53.1652C40.6284 52.9953 40.2808 52.3732 40.4518 51.7758L41.7152 47.3332C41.8839 46.7358 42.506 46.3848 43.1045 46.5592C43.7019 46.7291 44.0495 47.3512 43.8785 47.9486L42.6152 52.3912C42.4745 52.8851 42.0234 53.2079 41.534 53.2079Z" fill="#DCBB8E"/>
</g>
<g id="Group_5">
<path id="Vector_3" d="M41.5321 53.2081C41.0416 53.2081 40.5916 52.8852 40.451 52.3902C40.2822 51.7917 40.6276 51.1696 41.225 51.0008L45.6699 49.7397C46.2684 49.5664 46.8905 49.9163 47.0592 50.5137C47.228 51.1122 46.8826 51.7343 46.2852 51.9031L41.8404 53.1642C41.738 53.1946 41.6345 53.2081 41.5321 53.2081Z" fill="#DCBB8E"/>
</g>
<g id="Group_6">
<path id="Vector_4" d="M47.1027 50.8219C46.8147 50.8219 46.5267 50.7117 46.3073 50.4923L43.1258 47.3108C42.6859 46.8709 42.6859 46.1599 43.1258 45.72C43.5657 45.2802 44.2767 45.2802 44.7166 45.72L47.8981 48.9015C48.3379 49.3414 48.3379 50.0524 47.8981 50.4923C47.6787 50.7117 47.3907 50.8219 47.1027 50.8219Z" fill="#DCBB8E"/>
</g>
<g id="Group_7">
<path id="Vector_5" d="M60.296 37.6277C60.008 37.6277 59.72 37.5175 59.5007 37.2981L56.3192 34.1155C55.8793 33.6756 55.8793 32.9646 56.3192 32.5247C56.759 32.0849 57.47 32.0849 57.9099 32.5247L61.0914 35.7074C61.5313 36.1472 61.5313 36.8582 61.0914 37.2981C60.8709 37.5186 60.584 37.6277 60.296 37.6277Z" fill="#DCBB8E"/>
</g>
<g id="Group_8">
<path id="Vector_6" d="M42.7962 48.7653C42.5082 48.7653 42.2202 48.6551 42.0008 48.4357C41.5609 47.9958 41.5609 47.2848 42.0008 46.845L66.0016 22.8431C66.4414 22.4032 67.1524 22.4032 67.5923 22.8431C68.0322 23.283 68.0322 23.994 67.5923 24.4338L43.5916 48.4357C43.3722 48.6551 43.0842 48.7653 42.7962 48.7653Z" fill="#DCBB8E"/>
</g>
<g id="Group_9">
<path id="Vector_7" d="M45.9778 51.9468C45.6898 51.9468 45.4018 51.8366 45.1824 51.6172C44.7426 51.1773 44.7426 50.4663 45.1824 50.0265L69.1832 26.0257C69.6231 25.5858 70.3341 25.5858 70.7739 26.0257C71.2138 26.4656 71.2138 27.1766 70.7739 27.6165L46.7732 51.6172C46.5538 51.8366 46.2658 51.9468 45.9778 51.9468Z" fill="#DCBB8E"/>
</g>
<g id="Group_10">
<path id="Vector_8" d="M69.9788 27.9461C69.6908 27.9461 69.4028 27.8358 69.1834 27.6165C68.7435 27.1766 68.7435 26.4656 69.1834 26.0257C69.6222 25.5858 69.6222 24.8737 69.1834 24.4338C68.7458 23.9962 68.0303 23.9951 67.5927 24.435C67.1528 24.8726 66.4407 24.8737 66.0008 24.4338C65.562 23.9928 65.562 23.2818 66.0019 22.842C67.3182 21.5302 69.4579 21.5302 70.7742 22.842C72.0904 24.1593 72.0904 26.3002 70.7742 27.6165C70.5548 27.8358 70.2668 27.9461 69.9788 27.9461Z" fill="#DCBB8E"/>
</g>
<g id="Group_11">
<path id="Vector_9" d="M69.9789 32.7184C69.6909 32.7184 69.4029 32.6081 69.1836 32.3887C68.7437 31.9489 68.7437 31.2379 69.1836 30.798C69.3951 30.5854 69.5132 30.303 69.5132 30.0026C69.5132 29.7011 69.3962 29.4199 69.1836 29.2084C68.7437 28.7685 68.7437 28.0575 69.1824 27.6165C69.6223 27.1766 70.3344 27.1777 70.7743 27.6154C71.4111 28.2521 71.7632 29.1004 71.7632 30.0026C71.7632 30.9037 71.4111 31.752 70.7743 32.3887C70.5549 32.6081 70.2669 32.7184 69.9789 32.7184Z" fill="#DCBB8E"/>
</g>
<g id="Group_12">
<path id="Vector_10" d="M62.3548 40.3435C62.0668 40.3435 61.7788 40.2333 61.5594 40.0139C61.1195 39.5741 61.1195 38.863 61.5594 38.4232L69.1835 30.7979C69.6234 30.358 70.3344 30.358 70.7743 30.7979C71.2141 31.2378 71.2141 31.9488 70.7743 32.3887L63.1501 40.0139C62.9308 40.2344 62.6428 40.3435 62.3548 40.3435Z" fill="#DCBB8E"/>
</g>
<g id="Group_13">
<path id="Vector_11" d="M69.9781 29.5369C69.6901 29.5369 69.4021 29.4266 69.1828 29.2073L65.2059 25.2293C64.766 24.7894 64.766 24.0784 65.2059 23.6385C65.6458 23.1986 66.3568 23.1986 66.7966 23.6385L70.7735 27.6165C71.2134 28.0564 71.2134 28.7674 70.7735 29.2073C70.5541 29.4266 70.2661 29.5369 69.9781 29.5369Z" fill="#DCBB8E"/>
</g>
</g>
<g id="Group_14">
<path id="Vector_12" d="M51.9873 68.625H4.7373C4.11518 68.625 3.6123 68.1221 3.6123 67.5V1.125C3.6123 0.502875 4.11518 0 4.7373 0H45.2373C45.5366 0 45.8223 0.118125 46.0327 0.329625L52.7827 7.07963C52.9931 7.29 53.1123 7.57575 53.1123 7.875V38.448C53.1123 39.0701 52.6094 39.573 51.9873 39.573C51.3652 39.573 50.8623 39.0701 50.8623 38.448V8.34075L44.7716 2.25H5.8623V66.375H50.8623V44.811C50.8623 44.1889 51.3652 43.686 51.9873 43.686C52.6094 43.686 53.1123 44.1889 53.1123 44.811V67.5C53.1123 68.1221 52.6094 68.625 51.9873 68.625Z" fill="#DCBB8E"/>
</g>
<g id="Group_15">
<path id="Vector_13" d="M45.2373 9C44.6152 9 44.1123 8.49712 44.1123 7.875V1.125C44.1123 0.502875 44.6152 0 45.2373 0C45.8594 0 46.3623 0.502875 46.3623 1.125V7.875C46.3623 8.49712 45.8594 9 45.2373 9Z" fill="#DCBB8E"/>
</g>
<g id="Group_16">
<path id="Vector_14" d="M51.9873 9H45.2373C44.6152 9 44.1123 8.49712 44.1123 7.875C44.1123 7.25288 44.6152 6.75 45.2373 6.75H51.9873C52.6094 6.75 53.1123 7.25288 53.1123 7.875C53.1123 8.49712 52.6094 9 51.9873 9Z" fill="#DCBB8E"/>
</g>
<g id="Group_17">
<path id="Vector_15" d="M42.9873 31.5078H13.7373C13.1152 31.5078 12.6123 31.0049 12.6123 30.3828C12.6123 29.7607 13.1152 29.2578 13.7373 29.2578H42.9873C43.6094 29.2578 44.1123 29.7607 44.1123 30.3828C44.1123 31.0049 43.6094 31.5078 42.9873 31.5078Z" fill="#DCBB8E"/>
</g>
<g id="Group_18">
<path id="Vector_16" d="M42.9873 37.1318H13.7373C13.1152 37.1318 12.6123 36.629 12.6123 36.0068C12.6123 35.3847 13.1152 34.8818 13.7373 34.8818H42.9873C43.6094 34.8818 44.1123 35.3847 44.1123 36.0068C44.1123 36.629 43.6094 37.1318 42.9873 37.1318Z" fill="#DCBB8E"/>
</g>
<g id="Group_19">
<path id="Vector_17" d="M42.9873 42.7556H13.7373C13.1152 42.7556 12.6123 42.2527 12.6123 41.6306C12.6123 41.0085 13.1152 40.5056 13.7373 40.5056H42.9873C43.6094 40.5056 44.1123 41.0085 44.1123 41.6306C44.1123 42.2527 43.6094 42.7556 42.9873 42.7556Z" fill="#DCBB8E"/>
</g>
<g id="Group_20">
<path id="Vector_18" d="M28.3623 48.3794H13.7373C13.1152 48.3794 12.6123 47.8765 12.6123 47.2544C12.6123 46.6323 13.1152 46.1294 13.7373 46.1294H28.3623C28.9844 46.1294 29.4873 46.6323 29.4873 47.2544C29.4873 47.8765 28.9844 48.3794 28.3623 48.3794Z" fill="#DCBB8E"/>
</g>
<g id="Group_21">
<path id="Vector_19" d="M42.9873 59.6284H35.1123C34.4902 59.6284 33.9873 59.1255 33.9873 58.5034C33.9873 57.8813 34.4902 57.3784 35.1123 57.3784H42.9873C43.6094 57.3784 44.1123 57.8813 44.1123 58.5034C44.1123 59.1255 43.6094 59.6284 42.9873 59.6284Z" fill="#DCBB8E"/>
</g>
<g id="Group_22">
<path id="Vector_20" d="M40.7373 61.8784C40.1152 61.8784 39.6123 61.3755 39.6123 60.7534V56.2534C39.6123 55.6313 40.1152 55.1284 40.7373 55.1284C41.3594 55.1284 41.8623 55.6313 41.8623 56.2534V60.7534C41.8623 61.3755 41.3594 61.8784 40.7373 61.8784Z" fill="#DCBB8E"/>
</g>
<g id="Group_23">
<path id="Vector_21" d="M40.7389 61.8783C40.3957 61.8783 40.0594 61.7231 39.8377 61.4283L36.4627 56.9283C36.0892 56.4322 36.1905 55.7268 36.6877 55.3544C37.1827 54.9821 37.8881 55.0811 38.2616 55.5794L41.6366 60.0794C42.0101 60.5756 41.9089 61.2809 41.4116 61.6533C41.2102 61.8052 40.974 61.8783 40.7389 61.8783Z" fill="#DCBB8E"/>
</g>
<g id="Group_24">
<path id="Vector_22" d="M37.3623 61.8784C36.7402 61.8784 36.2373 61.3755 36.2373 60.7534V56.2534C36.2373 55.6313 36.7402 55.1284 37.3623 55.1284C37.9844 55.1284 38.4873 55.6313 38.4873 56.2534V60.7534C38.4873 61.3755 37.9844 61.8784 37.3623 61.8784Z" fill="#DCBB8E"/>
</g>
<g id="Group_25">
<path id="Vector_23" d="M48.6123 72C47.9902 72 47.4873 71.4971 47.4873 70.875V67.5C47.4873 66.8779 47.9902 66.375 48.6123 66.375C49.2344 66.375 49.7373 66.8779 49.7373 67.5V70.875C49.7373 71.4971 49.2344 72 48.6123 72Z" fill="#DCBB8E"/>
</g>
<g id="Group_26">
<path id="Vector_24" d="M48.6123 72H1.3623C0.74018 72 0.237305 71.4971 0.237305 70.875C0.237305 70.2529 0.74018 69.75 1.3623 69.75H48.6123C49.2344 69.75 49.7373 70.2529 49.7373 70.875C49.7373 71.4971 49.2344 72 48.6123 72Z" fill="#DCBB8E"/>
</g>
<g id="Group_27">
<path id="Vector_25" d="M1.3623 72C0.74018 72 0.237305 71.4971 0.237305 70.875V4.5C0.237305 3.87788 0.74018 3.375 1.3623 3.375C1.98443 3.375 2.4873 3.87788 2.4873 4.5V70.875C2.4873 71.4971 1.98443 72 1.3623 72Z" fill="#DCBB8E"/>
</g>
<g id="Group_28">
<path id="Vector_26" d="M4.7373 5.625H1.3623C0.74018 5.625 0.237305 5.12212 0.237305 4.5C0.237305 3.87788 0.74018 3.375 1.3623 3.375H4.7373C5.35943 3.375 5.8623 3.87788 5.8623 4.5C5.8623 5.12212 5.35943 5.625 4.7373 5.625Z" fill="#DCBB8E"/>
</g>
<g id="Group_29">
<g id="Group_30">
<path id="Vector_27" d="M21.6141 23.6407C17.9939 23.6407 14.6909 21.7552 12.7772 18.5996C12.5612 18.2418 12.5612 17.7907 12.7772 17.433C14.6909 14.2762 17.995 12.3918 21.6141 12.3918C25.2321 12.3918 28.5351 14.2762 30.4499 17.433C30.6681 17.7907 30.6681 18.2418 30.4499 18.5996C28.5351 21.7563 25.2321 23.6407 21.6141 23.6407ZM15.0869 18.0157C16.6236 20.142 19.0165 21.3907 21.6141 21.3907C24.2095 21.3907 26.6024 20.142 28.1402 18.0157C26.6024 15.8895 24.2095 14.6407 21.6141 14.6407C19.0165 14.6407 16.6236 15.8895 15.0869 18.0157Z" fill="#DCBB8E"/>
</g>
<g id="Group_31">
<path id="Vector_28" d="M21.6123 21.3716C19.7516 21.3716 18.2373 19.8573 18.2373 17.9966C18.2373 16.1358 19.7516 14.6216 21.6123 14.6216C23.4731 14.6216 24.9873 16.1358 24.9873 17.9966C24.9873 19.8573 23.4731 21.3716 21.6123 21.3716ZM21.6123 16.8716C20.9913 16.8716 20.4873 17.3756 20.4873 17.9966C20.4873 18.6176 20.9913 19.1216 21.6123 19.1216C22.2333 19.1216 22.7373 18.6176 22.7373 17.9966C22.7373 17.3756 22.2333 16.8716 21.6123 16.8716Z" fill="#DCBB8E"/>
</g>
</g>
</g>
</g>
</g>
<defs>
<clipPath id="clip0_0_1230">
<rect width="72" height="72" fill="white"/>
</clipPath>
</defs>
</svg>
