<svg width="84" height="84" viewBox="0 0 84 84" fill="none" xmlns="http://www.w3.org/2000/svg">
<g id="Individual">
<g id="Group">
<path id="Vector" d="M77.6645 38.0099C76.6495 37.3449 75.2495 37.0649 73.8495 37.3099C72.4145 37.5549 71.1895 38.2899 70.4895 39.3049L64.2595 48.6149V38.8149C64.2595 33.9499 60.3045 29.9949 55.4395 29.9949H38.9895C34.1245 29.9949 30.1695 33.9499 30.1695 38.8149V44.5549H29.5745C26.5645 44.5549 23.6945 45.5699 21.5595 47.4599L16.5545 51.7999L13.7895 49.0349L13.1945 48.4749C12.8095 48.0899 12.1795 48.1249 11.8295 48.4749L4.54953 55.7899C4.37453 55.9649 4.26953 56.2099 4.26953 56.4899C4.26953 56.7699 4.37453 57.0149 4.54953 57.1899L25.1995 77.8399C25.3745 78.0149 25.6545 78.1199 25.8995 78.1199C26.1445 78.1199 26.3895 78.0149 26.5995 77.8399L33.9145 70.5249C34.0895 70.3499 34.1945 70.1049 34.1945 69.8249C34.1945 69.5449 34.0895 69.2999 33.9145 69.1249L31.8845 67.0949H59.8145C63.3845 67.0949 67.7595 61.2149 71.5745 55.5099L78.9595 44.4499C80.3595 42.3149 79.7995 39.4449 77.6645 38.0099ZM32.1645 38.8149C32.1645 35.0349 35.2445 31.9549 39.0245 31.9549H55.4745C59.2545 31.9549 62.3345 35.0349 62.3345 38.8149V50.9949C62.0195 51.1699 61.6695 51.2399 61.2845 51.2399H59.5695C59.3245 49.9799 58.5545 48.8949 57.5045 48.2299V42.3849C57.5045 41.8249 57.0495 41.4049 56.5245 41.4049C55.9995 41.4049 55.5445 41.8599 55.5445 42.3849V47.5299C55.3695 47.4949 55.1945 47.4949 55.0195 47.4949H42.7695C41.6845 46.5149 40.3545 45.7799 38.9545 45.2549V42.3499C38.9545 41.7899 38.4995 41.3699 37.9745 41.3699C37.4495 41.3699 36.9945 41.8249 36.9945 42.3499V44.6949C36.2595 44.5549 35.4895 44.4849 34.6845 44.4849H32.1645V38.8149ZM25.8995 75.7399L6.64953 56.4899L12.5645 50.5749L31.8145 69.8249L25.8995 75.7399ZM77.3145 43.3649L69.9295 54.4249C65.2045 61.5299 61.7745 65.1349 59.8145 65.1349H29.9245L17.9545 53.1999L22.8545 48.9299C24.6045 47.3899 27.0545 46.5149 29.5745 46.5149H34.6845C37.3445 46.5149 39.9345 47.4949 41.7195 49.2099C41.8945 49.3849 42.1395 49.4899 42.3845 49.4899H55.0195C56.4545 49.4899 57.6095 50.6449 57.6795 52.0799C57.6795 52.1499 57.6795 52.1849 57.6795 52.2549C57.6795 52.2899 57.6795 52.3249 57.6795 52.3599C57.5745 53.7949 56.4545 54.9149 55.0195 54.9149H42.3845C41.8245 54.9149 41.4045 55.3699 41.4045 55.8949C41.4045 56.4199 41.8595 56.8749 42.3845 56.8749H55.0195C57.2245 56.8749 59.0795 55.2999 59.5345 53.2349H61.2495C62.6845 53.2349 64.0495 52.4999 64.8545 51.3099L72.1345 40.3899C72.5195 39.8299 73.2545 39.4099 74.1645 39.2699C75.0745 39.1299 75.9845 39.2699 76.5795 39.6549C77.8045 40.4599 78.1195 42.1399 77.3145 43.3649Z" fill="#DCBB8E"/>
<path id="Vector_2" d="M13.9294 56.9448C14.5673 56.9448 15.0844 56.4277 15.0844 55.7898C15.0844 55.1519 14.5673 54.6348 13.9294 54.6348C13.2915 54.6348 12.7744 55.1519 12.7744 55.7898C12.7744 56.4277 13.2915 56.9448 13.9294 56.9448Z" fill="#DCBB8E"/>
<path id="Vector_3" d="M47.25 26.8799C53.025 26.8799 57.75 22.1549 57.75 16.3799C57.75 10.6049 53.025 5.87988 47.25 5.87988C41.475 5.87988 36.75 10.6049 36.75 16.3799C36.75 22.1549 41.475 26.8799 47.25 26.8799ZM47.25 7.83988C51.94 7.83988 55.79 11.6549 55.79 16.3799C55.79 21.1049 51.975 24.9199 47.25 24.9199C42.56 24.9199 38.71 21.1049 38.71 16.3799C38.71 11.6549 42.56 7.83988 47.25 7.83988Z" fill="#DCBB8E"/>
</g>
</g>
</svg>
