<svg width="84" height="84" viewBox="0 0 84 84" fill="none" xmlns="http://www.w3.org/2000/svg">
<path d="M79.4852 64.0499C79.0302 63.1399 78.1202 62.5449 77.0702 62.5449H73.0802V32.0599C73.0802 28.1749 69.9302 25.0249 66.0452 25.0249H60.5852L59.4652 22.1899C59.4652 22.1899 59.4652 22.1549 59.4302 22.1549C59.4302 22.1549 59.4302 22.1549 59.4302 22.1199C59.4302 22.1199 59.4302 22.0849 59.3952 22.0849L59.3602 22.0499C59.3602 22.0149 59.3252 22.0149 59.3252 21.9799C59.2902 21.9449 59.2902 21.9099 59.2552 21.9099L59.2202 21.8749C59.1852 21.8399 59.1852 21.8399 59.1502 21.8049C59.1152 21.8049 59.1152 21.7699 59.0802 21.7699L59.0452 21.7349C59.0452 21.7349 59.0102 21.7349 59.0102 21.6999C58.9752 21.6999 58.9402 21.6649 58.9402 21.6649C58.9052 21.6649 58.8702 21.6299 58.8352 21.6299C58.8352 21.6299 58.8352 21.6299 58.8002 21.6299C58.7652 21.6299 58.7652 21.6299 58.7302 21.6299C58.6952 21.6299 58.6952 21.6299 58.6602 21.6299L42.9802 20.9999V18.1649C44.6252 17.7449 45.8502 16.2049 45.8502 14.4199C45.8502 12.2849 44.1002 10.5349 41.9652 10.5349C39.8302 10.5349 38.0802 12.2849 38.0802 14.4199C38.0802 16.2049 39.3052 17.7099 40.9502 18.1649V20.9999L25.4452 21.5599C25.4102 21.5599 25.3752 21.5599 25.3752 21.5599C25.3402 21.5599 25.3402 21.5599 25.3052 21.5599C25.3052 21.5599 25.3052 21.5599 25.2702 21.5599C25.2352 21.5599 25.2002 21.5949 25.1652 21.5949C25.1302 21.5949 25.1302 21.5949 25.0952 21.6299C25.0952 21.6299 25.0602 21.6299 25.0602 21.6649C25.0602 21.6649 25.0252 21.6649 25.0252 21.6999C24.9902 21.6999 24.9902 21.7349 24.9552 21.7349C24.8852 21.7699 24.8502 21.8049 24.8152 21.8049L24.7802 21.8399C24.7452 21.9099 24.7102 21.9099 24.7102 21.9449C24.7102 21.9799 24.6752 21.9799 24.6752 22.0149L24.6402 22.0499C24.6402 22.0499 24.6402 22.0849 24.6052 22.0849C24.6052 22.0849 24.6052 22.0849 24.6052 22.1199C24.6052 22.1199 24.6052 22.1549 24.5702 22.1549L23.4152 25.0249H18.3052C14.2452 25.0249 11.0602 28.1049 11.0602 32.0599V62.5799H6.96518C5.91518 62.5799 5.00518 63.1399 4.55018 64.0849C4.13018 64.9599 4.23518 66.0099 4.83018 66.7799L6.44018 68.8449C8.71518 71.7499 12.3202 73.4649 16.1002 73.4649H67.9002C71.6802 73.4649 75.2852 71.7499 77.5602 68.8449L79.1702 66.7799C79.8002 65.9749 79.9052 64.9599 79.4852 64.0499ZM50.9602 40.0749H66.1152C66.1502 40.0749 66.1852 40.0749 66.2202 40.1099C66.2552 40.1449 66.2552 40.1799 66.2552 40.2149C65.6952 43.9949 62.4052 46.8649 58.5552 46.8649C54.7052 46.8649 51.4152 43.9949 50.8552 40.2149C50.8552 40.1799 50.8552 40.1449 50.8902 40.1099C50.8902 40.0749 50.9252 40.0749 50.9602 40.0749ZM53.3752 38.0799L58.5202 25.1999L63.6652 38.0799H53.3752ZM43.4352 51.7999C44.9402 51.7999 46.2002 52.7799 46.6202 54.1449H37.3452C37.7652 52.7799 39.0252 51.7999 40.5302 51.7999H43.4352ZM42.0002 28.0699L30.1702 23.3799L42.0002 22.9249L53.8302 23.3449L42.0002 28.0699ZM17.9202 40.0749H33.0752C33.1102 40.0749 33.1452 40.0749 33.1802 40.1099C33.2152 40.1449 33.2152 40.1799 33.2152 40.2149C32.6552 43.9949 29.3652 46.8649 25.5152 46.8649C21.6652 46.8649 18.3752 43.9949 17.8152 40.2149C17.8152 40.1799 17.8152 40.1449 17.8502 40.1099C17.8502 40.0749 17.8852 40.0749 17.9202 40.0749ZM20.3352 38.0799L25.0252 26.3899L25.4802 25.1999L30.6252 38.0799H20.3352ZM40.1102 14.4199C40.1102 13.3699 40.9502 12.5299 42.0002 12.5299C43.0502 12.5299 43.8902 13.3699 43.8902 14.4199C43.8902 15.4699 43.0502 16.3099 42.0002 16.3099C40.9502 16.3099 40.1102 15.4699 40.1102 14.4199ZM13.0552 32.0599C13.0552 29.2249 15.3652 27.0199 18.3402 27.0199H22.6802L18.2002 38.0799H17.9202C17.3252 38.0799 16.7302 38.3599 16.3452 38.8149C15.9602 39.2699 15.7852 39.8649 15.8552 40.4599C16.5552 45.2199 20.6852 48.7899 25.4802 48.7899C30.2752 48.7899 34.4402 45.2199 35.1052 40.4599C35.1752 39.8649 35.0002 39.2699 34.6152 38.7799C34.2302 38.3249 33.6352 38.0449 33.0402 38.0449H32.7602L27.2302 24.3249L40.9852 29.8199V49.8399H40.5302C37.5902 49.8399 35.2102 52.2199 35.2102 55.1599C35.2102 55.7199 35.6652 56.1399 36.1902 56.1399H47.7402C48.3002 56.1399 48.7202 55.6849 48.7202 55.1599C48.7202 52.2199 46.3402 49.8399 43.4002 49.8399H42.9452V29.7849L56.7002 24.2899L51.2052 38.0799H50.8902C50.2952 38.0799 49.7002 38.3599 49.3152 38.8149C48.9302 39.2699 48.7552 39.8649 48.8252 40.4949C49.5252 45.2549 53.6552 48.8249 58.4502 48.8249C63.2452 48.8249 67.4102 45.2549 68.0752 40.4949C68.1452 39.8999 67.9702 39.3049 67.5852 38.8149C67.2002 38.3599 66.6052 38.0799 66.0102 38.0799H65.8002L61.3552 26.9849H66.0452C68.8452 26.9849 71.0852 29.2599 71.0852 32.0249V62.5449H47.7752C45.9902 62.5449 44.4152 63.5599 43.6802 65.1349C43.4002 65.7999 42.7352 66.1849 42.0002 66.1849C41.2302 66.1849 40.6002 65.7999 40.2852 65.1349C39.5852 63.5599 37.9752 62.5449 36.1902 62.5449H13.0552V32.0599ZM77.6302 65.5549L76.0202 67.6199C74.1302 70.0349 71.0852 71.5049 67.9002 71.5049H16.1002C12.9152 71.5049 9.90519 70.0699 7.98018 67.6199L6.37018 65.5549C6.16018 65.3099 6.23018 65.0649 6.30018 64.9249C6.33518 64.8199 6.51018 64.5399 6.96518 64.5399H36.2252C37.2402 64.5399 38.1152 65.0999 38.5002 65.9749C39.1302 67.3399 40.4602 68.1799 42.0002 68.1799C43.5402 68.1799 44.8702 67.3399 45.5002 65.9749C45.8852 65.0999 46.7952 64.5399 47.7752 64.5399H77.0352C77.4552 64.5399 77.6302 64.8199 77.7002 64.9249C77.7702 65.0649 77.8402 65.2749 77.6302 65.5549Z" fill="#DCBB8E"/>
</svg>
