<svg width="84" height="84" viewBox="0 0 84 84" fill="none" xmlns="http://www.w3.org/2000/svg">
<path d="M47.6001 7.42004C35.2801 7.42004 24.2901 14.21 18.6901 25.13C17.4301 25.375 16.1701 25.76 14.9451 26.25C14.5601 26.39 14.3151 26.775 14.3151 27.16V27.265V33.04V33.145V39.025C14.3151 39.025 14.3151 39.025 14.3151 39.06V39.095V42.455C11.0251 42.14 7.66508 42.63 4.58508 43.855C4.20008 43.995 3.95508 44.38 3.95508 44.765V44.87V50.645V50.75V56.63V56.665V56.7V62.44V62.615V68.0751V68.355V73.99C3.95508 74.375 4.20008 74.76 4.58508 74.9C7.07008 75.88 9.69508 76.405 12.3201 76.405C13.9651 76.405 15.6101 76.195 17.2201 75.81C19.0051 76.3 20.8601 76.545 22.6801 76.545C24.4651 76.545 26.2501 76.3 27.9651 75.845C29.7151 76.3 31.5001 76.545 33.2851 76.545C35.9101 76.545 38.5351 76.055 41.0201 75.04C41.4051 74.9 41.6501 74.515 41.6501 74.1301V71.645C43.6101 71.995 45.6051 72.205 47.6001 72.205C65.4851 72.205 80.0101 57.68 80.0101 39.795C80.0101 21.945 65.4851 7.42004 47.6001 7.42004ZM24.9201 68.565C22.0151 68.915 19.0401 68.6 16.2751 67.585V63.7001C18.3401 64.3651 20.5101 64.715 22.6801 64.715C23.4151 64.715 24.1851 64.6451 24.9201 64.5751V68.25V68.565ZM16.2751 34.58C18.3751 35.245 20.5101 35.595 22.6801 35.595C24.8501 35.595 26.9851 35.245 29.0851 34.58V38.395C24.9201 39.9 20.4401 39.9 16.2751 38.395V34.58ZM29.0851 32.515C24.9201 34.02 20.4401 34.02 16.2751 32.515V28.84C18.3751 29.505 20.5101 29.855 22.6801 29.855C24.8501 29.855 26.9851 29.505 29.0851 28.84V32.515ZM36.5051 53.095C36.8201 53.06 37.1351 52.99 37.4501 52.92C37.4851 52.92 37.4851 52.92 37.5201 52.92H37.5551C38.2551 52.78 38.9551 52.57 39.6551 52.36V56.175C38.6751 56.525 37.6951 56.77 36.7151 56.98C36.4701 57.015 36.1901 57.05 35.9101 57.085C35.6301 57.12 35.3151 57.155 35.0351 57.19C34.8251 57.225 34.6151 57.225 34.3701 57.225C34.0901 57.26 33.7751 57.26 33.4951 57.26C33.2851 57.26 33.0751 57.26 32.8651 57.26C32.5501 57.26 32.2351 57.225 31.9201 57.225C31.7101 57.225 31.5351 57.19 31.3251 57.19C31.0101 57.155 30.6601 57.12 30.3451 57.05C30.1701 57.015 29.9951 56.98 29.8201 56.98C29.4701 56.91 29.1201 56.84 28.7701 56.735C28.6301 56.7 28.4551 56.665 28.3151 56.63C27.8251 56.49 27.3351 56.35 26.8451 56.175V52.36C28.9451 53.025 31.0801 53.375 33.2501 53.375C34.3001 53.375 35.3851 53.305 36.4351 53.13C36.4701 53.13 36.5051 53.13 36.5051 53.095ZM24.9201 56.7C22.0151 57.05 19.0401 56.735 16.2751 55.72V52.15C18.3401 52.815 20.5101 53.165 22.6801 53.165C23.4151 53.165 24.1851 53.095 24.9201 53.025V56.7ZM14.3151 56.42V57.05C11.4801 57.33 8.61008 57.015 5.95008 56.035V52.22C8.01508 52.885 10.1851 53.235 12.3551 53.235C13.0201 53.235 13.6851 53.2 14.3151 53.13V56.42ZM5.95008 58.1C8.01508 58.765 10.1851 59.115 12.3551 59.115C13.0201 59.115 13.6851 59.08 14.3151 59.01V62.335C14.3151 62.335 14.3151 62.335 14.3151 62.37V62.405V63C11.4801 63.28 8.61008 62.965 5.95008 61.985V58.1ZM16.2751 57.82C18.3401 58.485 20.5101 58.835 22.6801 58.835C23.4151 58.835 24.1851 58.765 24.9201 58.695V62.615C22.0151 62.965 19.0401 62.65 16.2751 61.635V57.82ZM26.8801 58.24C28.9451 58.905 31.1151 59.255 33.2501 59.255C33.6351 59.255 34.0551 59.255 34.4401 59.22C34.5101 59.22 34.6151 59.22 34.6851 59.185C35.0351 59.15 35.3501 59.115 35.7001 59.08C35.7701 59.08 35.8401 59.08 35.9101 59.045C36.7501 58.94 37.5551 58.765 38.3601 58.59C38.3951 58.59 38.3951 58.59 38.4301 58.59C38.4301 58.59 38.4301 58.59 38.4651 58.59C38.8501 58.485 39.2701 58.38 39.6551 58.24V62.125C35.4901 63.63 31.0101 63.63 26.8451 62.125V58.24H26.8801ZM39.6901 50.295C38.7451 50.645 37.8001 50.89 36.8551 51.065C36.6101 51.1 36.4001 51.135 36.1551 51.17C35.9101 51.205 35.6301 51.24 35.3851 51.275C35.1401 51.31 34.9301 51.345 34.6851 51.345C34.4051 51.38 34.0901 51.38 33.8101 51.38C33.4951 51.38 33.2151 51.38 32.9001 51.38C32.5501 51.38 32.2001 51.345 31.8501 51.345C31.6401 51.345 31.4301 51.31 31.2551 51.275C30.9751 51.24 30.6601 51.205 30.3801 51.17C30.1701 51.135 29.9951 51.1 29.7851 51.065C29.4701 50.995 29.1551 50.925 28.8401 50.855C28.6651 50.82 28.4901 50.785 28.3501 50.715C27.8601 50.575 27.4051 50.435 26.9151 50.26V46.585C29.0151 47.25 31.1501 47.6 33.3201 47.6C35.4901 47.6 37.6251 47.25 39.7251 46.585V50.295H39.6901ZM24.9201 50.855V50.96V51.1C22.0151 51.45 19.0401 51.135 16.2751 50.12V46.445C18.3401 47.11 20.5101 47.46 22.6801 47.46C23.4151 47.46 24.1851 47.39 24.9201 47.32V50.855ZM14.3151 50.505V50.785V51.135C11.4801 51.415 8.61008 51.1 5.95008 50.12V46.445C8.01508 47.11 10.1851 47.46 12.3551 47.46C13.0201 47.46 13.6851 47.425 14.3151 47.355V50.505ZM5.95008 64.05C8.01508 64.715 10.1851 65.065 12.3551 65.065C13.0201 65.065 13.6501 65.03 14.3151 64.96V68.285V68.74C11.4801 69.02 8.61008 68.705 5.95008 67.725V64.05ZM26.8801 64.19C28.9801 64.855 31.1151 65.205 33.2851 65.205C35.4551 65.205 37.5901 64.855 39.6901 64.19V67.865C35.5251 69.37 31.0451 69.37 26.8801 67.865V64.19ZM28.6651 45.08C29.1551 44.94 29.6801 44.835 30.2051 44.765C30.2401 44.765 30.2401 44.765 30.2751 44.765C32.7951 44.345 35.3851 44.45 37.9051 45.115C34.8601 45.85 31.7101 45.85 28.6651 45.08ZM25.5501 44.03C25.1651 44.17 24.9201 44.555 24.9201 44.94V45.36C22.0151 45.71 19.0401 45.395 16.2751 44.38V40.495C18.3751 41.16 20.5101 41.51 22.6801 41.51C24.8501 41.51 26.9851 41.16 29.0851 40.495V42.98C27.8951 43.19 26.7051 43.54 25.5501 44.03ZM18.0951 27.3C18.5501 27.195 19.0401 27.09 19.4951 26.985H19.5301C22.1201 26.53 24.7451 26.635 27.3001 27.3C24.2551 28.07 21.1051 28.07 18.0951 27.3ZM14.3151 44.45V44.87V45.045V45.395C12.1101 45.64 9.90508 45.465 7.73508 44.94C9.90508 44.38 12.1101 44.24 14.3151 44.45ZM5.95008 73.36V69.79C8.01508 70.455 10.1851 70.805 12.3551 70.805C13.0201 70.805 13.6851 70.7701 14.3151 70.7001V74.165C14.3151 74.235 14.3151 74.27 14.3501 74.34C11.5151 74.655 8.64508 74.34 5.95008 73.36ZM16.2751 73.5V69.685C18.3401 70.35 20.5101 70.7001 22.6801 70.7001C23.4151 70.7001 24.1851 70.63 24.9201 70.56V74.2001C24.9201 74.3051 24.9201 74.41 24.9551 74.48C22.0501 74.83 19.0401 74.48 16.2751 73.5ZM26.8801 73.5V69.93C28.9801 70.595 31.1151 70.945 33.2851 70.945C35.4551 70.945 37.5901 70.595 39.6901 69.93V70.455V73.5C35.5251 75.0051 31.0451 75.0051 26.8801 73.5ZM47.6001 70.28C45.6051 70.28 43.6101 70.07 41.6501 69.685V68.565V68.285V62.825V62.65V56.84V50.96V45.08C41.6501 45.045 41.6501 45.045 41.6501 45.01C41.6851 44.59 41.4401 44.205 41.0201 44.03C37.8001 42.735 34.4051 42.28 31.0451 42.665V39.165V39.13C31.0451 39.13 31.0451 39.13 31.0451 39.095V33.18V33.075V27.265V27.16C31.0451 26.775 30.8001 26.39 30.4151 26.25C27.4401 25.06 24.2551 24.57 21.1051 24.815C26.5301 15.26 36.5051 9.38004 47.6001 9.38004C64.4001 9.38004 78.0501 23.03 78.0501 39.83C78.0501 56.63 64.4001 70.28 47.6001 70.28Z" fill="#DCBB8E"/>
<path d="M57.0503 38.85H48.6153V27.265C48.6153 26.705 48.1603 26.285 47.6353 26.285C47.1103 26.285 46.6553 26.74 46.6553 27.265V39.83C46.6553 40.39 47.1103 40.81 47.6353 40.81H57.0503C57.6103 40.81 58.0303 40.355 58.0303 39.83C58.0303 39.305 57.5753 38.85 57.0503 38.85Z" fill="#DCBB8E"/>
<path d="M47.6001 18.8301C48.1601 18.8301 48.5801 18.3751 48.5801 17.8501V14.7001C48.5801 14.1401 48.1251 13.7201 47.6001 13.7201C47.0751 13.7201 46.6201 14.1751 46.6201 14.7001V17.8501C46.6201 18.3751 47.0751 18.8301 47.6001 18.8301Z" fill="#DCBB8E"/>
<path d="M47.6001 60.655C47.0401 60.655 46.6201 61.11 46.6201 61.635V64.785C46.6201 65.345 47.0751 65.765 47.6001 65.765C48.1251 65.765 48.5801 65.31 48.5801 64.785V61.635C48.5801 61.075 48.1601 60.655 47.6001 60.655Z" fill="#DCBB8E"/>
<path d="M30.5901 21.315C30.2051 20.93 29.5751 20.93 29.1901 21.315C28.8051 21.7 28.8051 22.33 29.1901 22.715L31.4301 24.955C31.6051 25.13 31.8851 25.235 32.1301 25.235C32.3751 25.235 32.6201 25.13 32.8301 24.955C33.2151 24.57 33.2151 23.94 32.8301 23.555L30.5901 21.315Z" fill="#DCBB8E"/>
<path d="M63.805 54.5301C63.42 54.1451 62.79 54.1451 62.405 54.5301C62.02 54.9151 62.02 55.5451 62.405 55.9301L64.645 58.1701C64.82 58.3451 65.1 58.4501 65.345 58.4501C65.59 58.4501 65.835 58.3451 66.045 58.1701C66.43 57.7851 66.43 57.1551 66.045 56.7701L63.805 54.5301Z" fill="#DCBB8E"/>
<path d="M72.6603 38.745H69.5103C68.9503 38.745 68.5303 39.2 68.5303 39.725C68.5303 40.25 68.9853 40.705 69.5103 40.705H72.6603C73.2203 40.705 73.6403 40.25 73.6403 39.725C73.6403 39.2 73.1853 38.745 72.6603 38.745Z" fill="#DCBB8E"/>
<path d="M64.6098 21.315L62.3698 23.555C61.9848 23.94 61.9848 24.57 62.3698 24.955C62.5448 25.13 62.8248 25.235 63.0698 25.235C63.3148 25.235 63.5598 25.13 63.7698 24.955L66.0098 22.715C66.3948 22.33 66.3948 21.7 66.0098 21.315C65.6248 20.93 64.9948 20.93 64.6098 21.315Z" fill="#DCBB8E"/>
</svg>
